<svg width="91" height="31" viewBox="0 0 91 31" fill="none" xmlns="http://www.w3.org/2000/svg">
<path d="M0.0665617 30L9.78656 0.839999H18.5866L28.3066 30H21.8266L19.8666 24H8.50656L6.54656 30H0.0665617ZM9.94656 19.24H18.4266L15.9466 11.8L14.3066 6.48H14.0666L12.4266 11.8L9.94656 19.24ZM42.4541 30.36C40.2674 30.36 38.2807 30.0267 36.4941 29.36C34.7074 28.6933 33.1607 27.72 31.8541 26.44C30.5474 25.16 29.5474 23.6 28.8541 21.76C28.1607 19.8933 27.8141 17.7733 27.8141 15.4C27.8141 13.0533 28.1607 10.96 28.8541 9.12C29.5474 7.25333 30.5474 5.68 31.8541 4.4C33.1607 3.12 34.7074 2.14667 36.4941 1.48C38.2807 0.813332 40.2674 0.479999 42.4541 0.479999C44.9607 0.479999 47.1874 0.919998 49.1341 1.8C51.0807 2.65333 52.6541 3.85333 53.8541 5.4C55.0541 6.94667 55.7874 8.77333 56.0541 10.88H49.7341C49.4941 9.86667 49.0407 8.98667 48.3741 8.24C47.7074 7.46667 46.8674 6.86667 45.8541 6.44C44.8674 6.01333 43.7341 5.8 42.4541 5.8C40.7741 5.8 39.3207 6.16 38.0941 6.88C36.8674 7.57333 35.9207 8.64 35.2541 10.08C34.5874 11.4933 34.2541 13.2667 34.2541 15.4C34.2541 17.0267 34.4407 18.44 34.8141 19.64C35.2141 20.84 35.7607 21.84 36.4541 22.64C37.1741 23.44 38.0407 24.04 39.0541 24.44C40.0674 24.84 41.2007 25.04 42.4541 25.04C43.7074 25.04 44.8407 24.8267 45.8541 24.4C46.8674 23.9733 47.7074 23.3733 48.3741 22.6C49.0674 21.8267 49.5207 20.9333 49.7341 19.92H56.0541C55.8141 22.0267 55.0807 23.8667 53.8541 25.44C52.6274 26.9867 51.0407 28.2 49.0941 29.08C47.1474 29.9333 44.9341 30.36 42.4541 30.36ZM59.7897 30V0.839999H69.2297L75.2297 19.92H75.4697L81.3897 0.839999H90.8697V30H84.8297V18.48L84.9097 7.36H84.6297L77.7897 30H72.9097L66.0697 7.36H65.7497L65.8697 18.56V30H59.7897Z" fill="white"/>
</svg>
