<svg xmlns="http://www.w3.org/2000/svg" width="53" height="41" viewBox="0 0 53 41" fill="none">
  <g clip-path="url(#clip0_239_24031)">
    <path d="M0 24.5727C0 32.5833 11.1955 39.0733 25.0053 39.0733C38.815 39.0733 50.0092 32.582 50.0092 24.5727V20.9951H0V24.5727Z" fill="#316014"/>
    <g style="mix-blend-mode:multiply" opacity="0.14">
      <path d="M8.15354 20.9951H0V24.5727C0 28.7518 3.05001 32.5168 7.93433 35.163L8.15354 20.9951Z" fill="#316014"/>
    </g>
    <g style="mix-blend-mode:multiply" opacity="0.14">
      <path d="M24.9823 20.9951C24.989 27.0221 24.9957 33.049 24.833 39.0719H25.0051C38.8149 39.0719 50.0091 32.5806 50.0091 24.5714V20.9951H24.9823Z" fill="#316014"/>
    </g>
    <g style="mix-blend-mode:multiply" opacity="0.14">
      <path d="M19.2661 20.9951H14.7744L14.8564 37.8309C16.2472 38.1878 17.6565 38.4666 19.0778 38.6659L19.2661 20.9951Z" fill="#316014"/>
    </g>
    <path d="M25.0039 35.4971C38.8132 35.4971 50.0078 29.005 50.0078 20.9966C50.0078 12.9882 38.8132 6.49609 25.0039 6.49609C11.1946 6.49609 0 12.9882 0 20.9966C0 29.005 11.1946 35.4971 25.0039 35.4971Z" fill="#447D21"/>
    <g style="mix-blend-mode:multiply" opacity="0.17">
      <path d="M37.3635 8.38867C37.9893 10.2124 38.3538 12.1171 38.4461 14.045C38.6491 18.7685 36.9991 23.7609 33.6048 27.0927C30.3194 30.3214 25.5521 31.6696 21.1237 32.3349C16.9131 32.9676 12.4161 32.8576 8.24316 31.7565C12.681 34.0809 18.5538 35.4957 25.0021 35.4957C38.8119 35.4957 50.006 29.003 50.006 20.9952C50.0087 15.5941 44.9159 10.8842 37.3635 8.38867Z" fill="#447D21"/>
    </g>
    <path d="M41.6808 10.9762V21.1062C41.6808 26.4584 34.1997 30.7963 24.9703 30.7963C15.7409 30.7963 8.25977 26.4584 8.25977 21.1062V10.4644L41.6808 10.9762Z" fill="#DCC231"/>
    <g style="mix-blend-mode:multiply" opacity="0.17">
      <path d="M21.3891 10.6599L8.25977 10.4644V21.1062C8.25977 25.6709 13.7035 29.4983 21.0354 30.5248L21.3891 10.6599Z" fill="#DCC231"/>
    </g>
    <g style="mix-blend-mode:multiply" opacity="0.17">
      <path d="M27.4526 30.6892L27.9233 10.7659L25.3896 10.7266L25.5241 30.7897C26.1777 30.7779 26.8205 30.7444 27.4526 30.6892Z" fill="#DCC231"/>
    </g>
    <g style="mix-blend-mode:multiply" opacity="0.17">
      <path d="M31.6818 10.8232L31.2783 30.084C37.3824 28.6407 41.6857 25.1649 41.6857 21.1067V10.9767L31.6818 10.8232Z" fill="#DCC231"/>
    </g>
    <path d="M24.9703 20.1546C34.1992 20.1546 41.6808 15.8162 41.6808 10.4645C41.6808 5.11282 34.1992 0.774414 24.9703 0.774414C15.7413 0.774414 8.25977 5.11282 8.25977 10.4645C8.25977 15.8162 15.7413 20.1546 24.9703 20.1546Z" fill="#FDE102"/>
    <g style="mix-blend-mode:multiply" opacity="0.18">
      <path d="M32.8697 1.92285C33.2933 4.31924 33.1387 6.82153 32.1059 9.04956C30.8686 11.7189 28.3875 13.6183 25.8929 15.0236C22.1758 17.1104 17.8241 18.0988 13.6377 17.591C16.6164 19.185 20.597 20.1598 24.9703 20.1598C34.1997 20.1598 41.6809 15.8151 41.6809 10.4697C41.6809 6.76994 38.1144 3.55756 32.8697 1.92285Z" fill="#F6E37A"/>
    </g>
    <path opacity="0.57" d="M15.8576 4.76203C19.006 3.71118 22.2995 3.17089 25.6155 3.16127C26.4439 3.16127 26.4453 1.86057 25.6155 1.86329C22.1858 1.87038 18.7788 2.42625 15.5214 3.51021C14.7387 3.76953 15.0736 5.02543 15.863 4.76203H15.8576Z" fill="#FCF29A"/>
    <path opacity="0.57" d="M27.6612 3.13558C28.4473 3.17963 29.2293 3.28035 30.0012 3.43699C30.808 3.59992 31.1563 2.35081 30.3441 2.18381C29.4568 2.00406 28.558 1.88791 27.6545 1.83623C26.8261 1.78871 26.8288 3.08806 27.6545 3.13558H27.6612Z" fill="#FCF29A"/>
    <path opacity="0.37" d="M23.5902 21.7229L23.4974 24.79C23.4719 25.6264 24.7589 25.625 24.7844 24.79L24.8772 21.7229C24.9028 20.8879 23.6158 20.8879 23.5902 21.7229Z" fill="#F6E37A"/>
    <path opacity="0.37" d="M23.3794 26.8807C23.3623 27.4699 23.3444 28.0583 23.3256 28.6457C23.3 29.4821 24.5857 29.4807 24.6125 28.6457C24.6296 28.0565 24.6475 27.4681 24.6663 26.8807C24.6919 26.0443 23.4049 26.0457 23.3794 26.8807Z" fill="#F6E37A"/>
    <path opacity="0.37" d="M29.2953 21.7229C29.2128 23.9523 29.1819 26.1831 29.2025 28.4152C29.2105 29.2502 30.4975 29.2529 30.4894 28.4152C30.4688 26.1831 30.4998 23.9523 30.5822 21.7229C30.6118 20.8879 29.3262 20.8879 29.2953 21.7229Z" fill="#F6E37A"/>
    <path opacity="0.55" d="M2.82093 15.8113C1.85536 17.0957 1.25289 18.6625 1.23944 20.2918C1.22599 22.0297 1.95488 23.6291 2.67569 25.1674C3.0092 25.8775 4.05277 25.2584 3.7206 24.5496C3.09258 23.2096 2.43766 21.807 2.44976 20.2918C2.46052 18.8703 3.02399 17.5519 3.86584 16.4318C4.33652 15.8059 3.28623 15.1963 2.82093 15.8154V15.8113Z" fill="#505050"/>
    <path opacity="0.55" d="M3.67891 26.6881C4.315 27.5923 5.20795 28.1653 6.14797 28.7057C6.82037 29.0953 7.43629 28.039 6.75851 27.6507C6.01887 27.2244 5.22947 26.7886 4.72517 26.0717C4.27735 25.4363 3.22706 26.0459 3.67891 26.6881Z" fill="#505050"/>
  </g>
  <defs>
    <clipPath id="clip0_239_24031">
      <rect width="53" height="40" fill="white" transform="translate(0 0.774414)"/>
    </clipPath>
  </defs>
</svg>