<svg width="258" height="69" viewBox="0 0 258 69" fill="none" xmlns="http://www.w3.org/2000/svg">
<g clip-path="url(#clip0_255_26532)">
<path d="M0 68.3677H257.198L245.988 18.7146C243.517 7.7716 233.796 0 222.577 0H32.491C20.8977 0 10.9616 8.28727 8.88073 19.6923L0 68.3677Z" fill="#F2C93C"/>
<ellipse opacity="0.5" cx="128.599" cy="34.1838" rx="102.298" ry="62.1836" fill="url(#paint0_linear_255_26532)"/>
</g>
<path d="M85.1489 38.8296V24.2496H91.5889C92.6423 24.2496 93.5623 24.4429 94.3489 24.8296C95.1489 25.2029 95.7689 25.7563 96.2089 26.4896C96.6489 27.2096 96.8689 28.0829 96.8689 29.1096C96.8689 30.0829 96.6623 30.9429 96.2489 31.6896C95.8356 32.4229 95.2356 32.9963 94.4489 33.4096C93.6623 33.8229 92.7089 34.0296 91.5889 34.0296H88.7289V38.8296H85.1489ZM90.9489 27.2696H88.7289V31.2696H90.9489C91.3223 31.2696 91.6823 31.2163 92.0289 31.1096C92.3756 31.0029 92.6556 30.8029 92.8689 30.5096C93.0956 30.2163 93.2089 29.7963 93.2089 29.2496C93.2089 28.7163 93.0956 28.3096 92.8689 28.0296C92.6556 27.7363 92.3756 27.5363 92.0289 27.4296C91.6823 27.3229 91.3223 27.2696 90.9489 27.2696ZM98.0422 38.8296V24.2496H101.422V38.8296H98.0422ZM107.025 39.0296C105.745 39.0296 104.712 38.5696 103.925 37.6496C103.152 36.7163 102.765 35.3096 102.765 33.4296C102.765 31.5496 103.152 30.1496 103.925 29.2296C104.712 28.2963 105.745 27.8296 107.025 27.8296C107.825 27.8296 108.512 28.0096 109.085 28.3696C109.672 28.7296 110.092 29.2029 110.345 29.7896H110.525L110.645 28.0296H113.905V38.8296H110.525V37.0696H110.345C110.092 37.6563 109.672 38.1296 109.085 38.4896C108.512 38.8496 107.825 39.0296 107.025 39.0296ZM108.345 36.3096C108.838 36.3096 109.238 36.1963 109.545 35.9696C109.865 35.7296 110.098 35.4296 110.245 35.0696C110.405 34.7096 110.485 34.3229 110.485 33.9096V32.9496C110.485 32.5363 110.405 32.1496 110.245 31.7896C110.098 31.4163 109.865 31.1163 109.545 30.8896C109.238 30.6629 108.838 30.5496 108.345 30.5496C107.705 30.5496 107.185 30.7763 106.785 31.2296C106.398 31.6829 106.205 32.4163 106.205 33.4296C106.205 34.4296 106.398 35.1629 106.785 35.6296C107.185 36.0829 107.705 36.3096 108.345 36.3096ZM115.676 42.1696V39.4096H116.996C117.423 39.4096 117.756 39.3229 117.996 39.1496C118.25 38.9896 118.443 38.7296 118.576 38.3696L118.736 37.9496L114.636 28.0296H118.356L120.076 33.4496L120.376 34.5296H120.476L120.736 33.4496L122.356 28.0296H125.976L121.916 39.1096C121.636 39.9363 121.283 40.5696 120.856 41.0096C120.443 41.4496 119.963 41.7496 119.416 41.9096C118.883 42.0829 118.296 42.1696 117.656 42.1696H115.676ZM130.825 38.8296V24.2496H135.085L140.525 33.8696H140.665L140.545 29.3296V24.2496H143.985V38.8296H139.965L134.545 29.4896H134.385L134.485 33.5296V38.8296H130.825ZM151.098 39.0296C150.005 39.0296 149.045 38.8096 148.218 38.3696C147.405 37.9296 146.765 37.2896 146.298 36.4496C145.845 35.6096 145.618 34.6029 145.618 33.4296C145.618 32.3096 145.831 31.3296 146.258 30.4896C146.685 29.6496 147.305 28.9963 148.118 28.5296C148.945 28.0629 149.938 27.8296 151.098 27.8296C152.191 27.8296 153.145 28.0496 153.958 28.4896C154.785 28.9296 155.425 29.5696 155.878 30.4096C156.331 31.2363 156.558 32.2429 156.558 33.4296C156.558 34.5496 156.345 35.5296 155.918 36.3696C155.491 37.2096 154.871 37.8629 154.058 38.3296C153.245 38.7963 152.258 39.0296 151.098 39.0296ZM151.098 36.2896C151.711 36.2896 152.205 36.0629 152.578 35.6096C152.965 35.1563 153.158 34.4296 153.158 33.4296C153.158 32.4296 152.971 31.7029 152.598 31.2496C152.225 30.7829 151.725 30.5496 151.098 30.5496C150.471 30.5496 149.971 30.7829 149.598 31.2496C149.225 31.7029 149.038 32.4296 149.038 33.4296C149.038 34.4296 149.225 35.1563 149.598 35.6096C149.971 36.0629 150.471 36.2896 151.098 36.2896ZM159.073 38.8296L156.613 28.0296H160.093L161.533 35.4696H161.673L162.933 28.0296H166.613L167.853 35.5096H167.933L169.433 28.0296H172.773L170.273 38.8296H165.853L164.693 32.3296H164.573L163.433 38.8296H159.073Z" fill="#1D262D"/>
<defs>
<linearGradient id="paint0_linear_255_26532" x1="128.599" y1="-27.9998" x2="128.599" y2="96.3673" gradientUnits="userSpaceOnUse">
<stop stop-color="white"/>
<stop offset="1" stop-color="#F2C93C" stop-opacity="0"/>
</linearGradient>
<clipPath id="clip0_255_26532">
<rect width="257.198" height="68.3677" fill="white"/>
</clipPath>
</defs>
</svg>
