<svg width="123" height="33" viewBox="0 0 123 33" fill="none" xmlns="http://www.w3.org/2000/svg">
<g clip-path="url(#clip0_237_21236)">
<path d="M123 32.1294C120.775 32.1294 118.53 32.3593 116.34 32.1064C114.442 31.8852 113.065 30.1501 113.054 28.2856C113.005 19.2966 113.028 10.3104 113.034 1.32138C113.07 1.11069 113.125 0.903881 113.2 0.703725C115.33 0.703725 117.501 0.660639 119.683 0.76406C119.921 0.76406 120.305 1.60579 120.311 2.06257C120.357 6.50681 120.339 10.9539 120.339 15.401C120.339 18.1273 120.339 20.8594 120.339 23.5771C120.339 25.6397 120.913 26.1626 123 26.0965V32.1294Z" fill="white"/>
<path d="M0 14.6024L0.768372 12.3242C0.983407 13.7606 1.17552 15.197 0 16.326V14.6024Z" fill="white"/>
<path d="M93.328 24.8069L98.2767 27.7429C96.5908 31.0208 93.8355 32.4227 90.6014 32.8278C88.7065 33.0473 86.7892 32.9756 84.9158 32.6152C79.6862 31.6327 76.2284 27.1569 75.9991 21.8106C75.7496 15.9471 79.1902 11.0318 84.2421 9.67867C89.1391 8.36867 94.0792 9.72751 96.7456 13.3616C98.5949 15.8811 98.6838 18.7912 98.5089 21.733C98.4946 21.9714 97.9355 22.3277 97.6201 22.3679C96.8113 22.4321 95.9994 22.4475 95.1888 22.4138C91.7482 22.4138 88.3077 22.3937 84.8671 22.434C84.1962 22.434 83.531 22.6954 82.8601 22.8333C83.1124 23.586 83.2099 24.4478 83.6428 25.0741C85.4721 27.6998 89.8846 28.1509 92.3331 26.0192C92.6967 25.6426 93.0294 25.2372 93.328 24.8069ZM87.6511 18.4465C88.8467 18.4465 90.0394 18.412 91.2321 18.4465C92.227 18.4838 92.4966 18.0041 92.3532 17.1164C92.0665 15.3697 90.2372 14.1832 87.8288 14.189C85.3459 14.189 83.359 15.4099 83.1009 17.0877C82.9662 17.9495 83.2099 18.4781 84.2163 18.4465C85.3517 18.4149 86.4985 18.4436 87.6453 18.4465H87.6511Z" fill="white"/>
<path d="M74.2758 26.0164C73.1548 28.872 71.3686 30.9203 68.5961 32.0292C63.8108 33.9425 56.815 33.1611 53.6583 28.5646C50.7711 24.3674 50.5044 19.8916 52.649 15.3841C54.6876 11.1238 58.4263 9.35123 63.008 9.21621C65.2085 9.12833 67.3943 9.61227 69.3529 10.621C71.8646 11.9138 73.3182 13.9851 73.8371 16.743C74.0206 17.7255 73.7941 18.3288 72.6129 18.2311C71.8026 18.1694 70.9889 18.1694 70.1787 18.2311C68.8799 18.3201 67.9251 18.2081 67.2342 16.7229C66.4314 14.9992 63.8567 14.4562 61.7493 15.1514C58.7446 16.1426 57.1619 19.9979 58.3948 23.2528C58.663 23.9704 59.0798 24.6229 59.6177 25.1676C60.1557 25.7122 60.8026 26.1366 61.5159 26.4129C62.2292 26.6891 62.9928 26.8109 63.7565 26.7703C64.5202 26.7297 65.2666 26.5276 65.9468 26.1773C66.723 25.8202 67.3844 25.2531 67.8563 24.5398C68.4555 23.5084 69.0032 23.5717 69.9149 24.0313C71.3026 24.7409 72.7591 25.3327 74.2758 26.0164Z" fill="white"/>
<path d="M111.104 26.2603V32.2932C109.077 32.2932 107.122 32.4311 105.192 32.2559C102.982 32.0576 101.324 30.1558 101.31 27.803C101.255 19.0926 101.26 10.3784 101.327 1.66041C101.327 1.32429 101.952 0.721001 102.314 0.700891C104.074 0.59747 105.846 0.675035 107.612 0.646307C108.722 0.626197 108.641 1.3645 108.641 2.10282C108.641 9.18909 108.641 16.2754 108.641 23.3616C108.644 25.4789 108.934 25.8179 111.104 26.2603Z" fill="white"/>
<path d="M48.3657 32.3535C46.3816 32.3535 44.2484 32.3851 42.121 32.3104C41.863 32.3104 41.4129 31.7128 41.41 31.3911C41.3698 24.6553 41.3698 17.9195 41.41 11.1837C41.41 10.8332 42.0207 10.2069 42.3733 10.1868C44.1344 10.092 45.8993 10.092 47.6604 10.1868C48.0073 10.2041 48.618 10.7327 48.618 11.0257C48.6495 18.0468 48.618 25.068 48.5864 32.0892C48.6036 32.115 48.5463 32.1495 48.3657 32.3535Z" fill="white"/>
<path d="M13.5361 21.2528C13.5361 18.0468 16.1166 15.5934 19.4883 15.6164C22.5705 15.6365 25.0907 18.0439 25.0878 20.9627C25.0878 24.005 22.258 26.5618 18.8518 26.5963C15.8327 26.625 13.5333 24.3124 13.5361 21.2528Z" fill="white"/>
<path d="M11.9072 5.46973C13.9142 5.46973 15.0983 6.58151 15.3793 8.69877C15.7807 11.7526 12.6899 15.1626 9.60777 15.0649C7.22518 14.9902 5.74574 13.1775 6.16721 10.8333C6.70623 7.6703 9.05729 5.47834 11.9072 5.46973Z" fill="white"/>
<path d="M33.4906 17.0356C33.3645 17.7682 33.3214 18.7449 33.0089 19.6211C32.7738 20.279 32.2606 21.204 31.7531 21.2902C31.2457 21.3764 30.2909 20.7415 29.9899 20.1756C29.2157 18.7392 28.3699 17.1907 28.1463 15.6049C27.8596 13.525 28.023 11.356 28.2151 9.24452C28.2782 8.57515 29.0466 7.97186 29.491 7.33984C30.1017 7.81098 30.8844 8.16721 31.2944 8.77625C32.9114 11.1952 33.2096 14.0048 33.4906 17.0356Z" fill="white"/>
<path d="M45.0195 0C47.3332 0 48.9675 1.53982 48.9646 3.74902C48.9643 4.26106 48.8625 4.76795 48.6649 5.24019C48.4674 5.71244 48.1781 6.14062 47.8139 6.49988C47.4498 6.85913 47.018 7.14229 46.5437 7.33288C46.0694 7.52347 45.562 7.61769 45.051 7.61008C44.0161 7.59751 43.0269 7.18116 42.2935 6.44948C41.56 5.71781 41.1401 4.72844 41.123 3.69156C41.1374 1.57717 42.7946 0.0143641 45.0195 0Z" fill="white"/>
<path d="M12.8418 1.2008C15.3047 -0.474054 23.1176 0.594629 24.8035 2.77797C22.633 4.95843 14.9864 4.00179 12.8418 1.2008Z" fill="white"/>
<path d="M10.2669 29.1188C8.45773 29.1533 6.31885 27.2372 6.10955 25.3842C5.96906 24.1403 6.84354 23.3732 8.04773 23.718C8.87886 23.9517 9.64159 24.3826 10.2714 24.9742C10.9012 25.5657 11.3796 26.3005 11.6661 27.1165C12.1248 28.3173 11.5342 29.0959 10.2669 29.1188Z" fill="white"/>
<path d="M6.21901 18.6072C6.07565 19.4029 6.09861 19.9287 5.87784 20.3308C5.62553 20.7761 5.18683 21.3536 4.77396 21.3995C4.3611 21.4455 3.70454 21.0174 3.46083 20.6124C2.6523 19.2593 2.38278 17.7626 3.01928 16.2601C3.19417 15.8435 3.67012 15.3322 4.05718 15.2891C4.30401 15.297 4.54521 15.3649 4.76 15.487C4.97478 15.6091 5.15671 15.7818 5.29006 15.99C5.66212 16.8389 5.97257 17.7135 6.21901 18.6072Z" fill="white"/>
<path d="M17.5781 32.3162C18.6963 30.1042 22.5067 28.9033 24.4765 30.0754C23.5332 32.118 19.5507 33.4654 17.5781 32.3162Z" fill="white"/>
<path d="M26.3145 29.3286L31.0481 24.1748L31.4036 24.4994C30.4145 26.7546 28.7143 28.372 26.7531 29.7567L26.3145 29.3286Z" fill="white"/>
<path d="M10.2041 31.1471C12.0649 30.9632 13.55 31.4775 15.0782 32.5117C14.2317 32.8713 13.2883 32.9322 12.4028 32.6842C11.5172 32.4363 10.742 31.8943 10.2041 31.1471Z" fill="white"/>
<path d="M1.70605 9.27919L4.8599 5.05615L5.52506 5.55028L2.42571 9.81928L1.70605 9.27919Z" fill="white"/>
<path d="M5.53107 29.1564L3.15137 26.5709L3.56709 26.1802L5.96975 28.737L5.53107 29.1564Z" fill="white"/>
<path d="M10.6113 1.46503L7.0446 3.62252L6.80664 3.24044L10.3447 1.08008L10.6113 1.46503Z" fill="white"/>
<path d="M1.58226 23.353L0.564453 20.4802L0.940029 20.3423L2.03816 23.2955L1.58226 23.353Z" fill="white"/>
</g>
<defs>
<clipPath id="clip0_237_21236">
<rect width="123" height="33" fill="white"/>
</clipPath>
</defs>
</svg>
