<svg xmlns="http://www.w3.org/2000/svg" width="115" height="58" viewBox="0 0 115 58" fill="none">
  <g style="mix-blend-mode:difference" clip-path="url(#clip0_510_4686)">
    <path d="M57.5793 57.4578C56.9505 57.4578 56.4158 57.4707 55.8832 57.455C54.4869 57.4147 53.0896 57.3984 51.6954 57.2992C51.2241 57.2656 50.7514 57.2607 50.2796 57.2286C49.265 57.1596 48.2516 57.0826 47.2389 56.9912C46.2157 56.8988 45.1943 56.7943 44.1745 56.6708C42.6552 56.486 41.1402 56.2704 39.6295 56.024C37.8544 55.7336 36.0894 55.3929 34.3345 55.0019C32.3485 54.5587 30.3783 54.0529 28.4277 53.4711C26.4871 52.8923 24.5698 52.2458 22.6803 51.5167C20.8097 50.7953 18.9736 49.9947 17.1815 49.0959C14.5402 47.7714 12.0133 46.2575 9.66805 44.454C8.8129 43.7961 7.99629 43.0932 7.20374 42.3594C5.8504 41.1126 4.63884 39.7206 3.59102 38.2085C2.63503 36.8246 1.86406 35.3439 1.32377 33.7468C0.948684 32.6481 0.703298 31.5095 0.592594 30.3539C0.311039 27.3661 0.940151 24.5597 2.29612 21.9002C3.08404 20.3549 4.07426 18.9475 5.21004 17.639C6.98541 15.5941 9.04173 13.8685 11.259 12.325C13.5676 10.7178 16.0208 9.36276 18.5653 8.17195C21.585 6.75843 24.7021 5.59564 27.8927 4.62783C30.0275 3.98078 32.1833 3.41453 34.3601 2.92908C36.4668 2.46089 38.5873 2.06497 40.7215 1.74134C41.9707 1.55068 43.2216 1.37388 44.4767 1.22787C45.6194 1.09542 46.7639 0.980627 47.9102 0.883497C49.3128 0.765833 50.7165 0.678972 52.1218 0.600426C52.6242 0.572396 53.1278 0.556073 53.6305 0.54098C55.4691 0.485535 57.3086 0.438714 59.1481 0.477217C60.4012 0.503501 61.6538 0.544571 62.9061 0.600426C64.4143 0.668602 65.9205 0.769945 67.4248 0.904448C68.8364 1.03218 70.2454 1.18557 71.6519 1.36463C74.0178 1.66136 76.3695 2.04372 78.7071 2.51171C80.8744 2.94294 83.0228 3.45344 85.1523 4.0432C87.7781 4.76621 90.3634 5.62867 92.8971 6.6269C95.5754 7.68774 98.1776 8.90874 100.673 10.354C102.732 11.5454 104.696 12.8724 106.518 14.402C108.8 16.3173 110.805 18.4775 112.303 21.071C113.387 22.95 114.118 24.9521 114.402 27.1108C114.727 29.5749 114.399 31.9606 113.529 34.2791C112.745 36.3678 111.573 38.2273 110.144 39.9331C108.387 42.0345 106.333 43.8121 104.102 45.391C102.59 46.4563 101.014 47.4286 99.3834 48.3024C96.4189 49.9005 93.3313 51.2151 90.1537 52.3265C87.1436 53.3793 84.0785 54.238 80.9688 54.94C78.7934 55.4312 76.6039 55.8464 74.4002 56.1857C73.1207 56.3828 71.8387 56.5599 70.5531 56.7093C69.1756 56.8693 67.7957 57.0028 66.4133 57.1097C64.9793 57.22 63.5453 57.2995 62.1074 57.3605C60.5664 57.4245 59.0266 57.4686 57.5793 57.4578ZM57.3089 52.8821C59.0186 52.8908 60.5688 52.8381 62.1197 52.7799C63.5777 52.7253 65.0333 52.6351 66.488 52.5276C67.8612 52.4263 69.2307 52.2867 70.5981 52.1309C72.3334 51.9331 74.0622 51.6827 75.7839 51.3916C78.4191 50.9444 81.0332 50.3948 83.6169 49.7126C86.4605 48.9616 89.2603 48.0714 91.9917 46.9779C94.6494 45.9146 97.2241 44.6872 99.6634 43.1859C101.869 41.8287 103.919 40.2766 105.704 38.3906C106.869 37.1585 107.871 35.8139 108.63 34.2939C109.654 32.244 110.122 30.0856 109.878 27.7946C109.693 26.0632 109.123 24.4577 108.263 22.9506C107.119 20.9454 105.58 19.2734 103.845 17.7724C102.365 16.492 100.753 15.3911 99.0716 14.3931C96.911 13.1114 94.65 12.0324 92.3226 11.0905C89.9869 10.1455 87.6018 9.34551 85.1779 8.65708C81.7737 7.68989 78.3195 6.95371 74.8258 6.39373C73.2222 6.13684 71.614 5.91886 70.0014 5.7398C68.9091 5.61874 67.8156 5.50662 66.7199 5.42315C65.6037 5.33854 64.4865 5.26616 63.3683 5.20599C61.8492 5.12529 60.3292 5.09017 58.8095 5.05752C56.8882 5.01655 54.9673 5.07354 53.0467 5.15239C51.8972 5.19942 50.7485 5.2602 49.6005 5.33474C48.1859 5.42715 46.7757 5.56391 45.3658 5.70899C43.7198 5.87861 42.0802 6.09371 40.447 6.3543C37.5636 6.8111 34.7043 7.38618 31.8761 8.11434C28.9069 8.87886 25.9881 9.79369 23.1383 10.9266C20.3443 12.0373 17.6426 13.3319 15.0919 14.9309C13.3462 16.0247 11.6981 17.2482 10.2043 18.6688C8.78977 20.0139 7.56085 21.509 6.62429 23.2306C5.78425 24.7753 5.25414 26.4177 5.13109 28.1747C4.98769 30.2261 5.40125 32.1762 6.28199 34.0311C7.10106 35.756 8.23376 37.2604 9.55673 38.6268C10.8692 39.9821 12.3322 41.1597 13.8892 42.2218C16.7378 44.1648 19.8102 45.6836 23.0045 46.9622C25.4678 47.9479 27.9873 48.7682 30.5463 49.4726C33.7899 50.3659 37.0782 51.0466 40.398 51.578C42.9752 51.9904 45.5674 52.2864 48.1693 52.506C49.9096 52.6527 51.6527 52.7538 53.3986 52.8094C54.7536 52.8513 56.1096 52.9172 57.3089 52.8821Z" fill="white"/>
    <path d="M43.4913 28.0081C43.3547 28.1387 43.284 28.2764 43.2014 28.4036C42.2883 29.8064 41.3677 31.2045 40.4722 32.6183C40.2813 32.9195 40.0661 33.0234 39.7204 33.0132C38.9494 32.991 38.1784 32.9935 37.4075 33.0132C37.1025 33.0209 36.9224 32.9146 36.7599 32.659C35.7959 31.1546 34.817 29.661 33.8395 28.1646C33.796 28.0978 33.7679 28.0149 33.6683 27.9708C33.5955 28.0805 33.6294 28.2043 33.6294 28.3177C33.6272 31.531 33.6266 34.7447 33.6276 37.9588C33.6276 38.072 33.6259 38.1849 33.6224 38.2976C33.6187 38.4208 33.5511 38.4849 33.4296 38.4914C33.3476 38.4957 33.2652 38.4972 33.1829 38.4972H29.5131C29.4616 38.4972 29.4101 38.4972 29.3589 38.4954C29.1233 38.4818 29.0937 38.4541 29.0814 38.2256C29.0768 38.1436 29.0792 38.0614 29.0792 37.9791C29.0792 31.9735 29.0792 25.968 29.0792 19.9626C29.0792 19.4555 29.0191 19.4355 29.5989 19.4368C30.8324 19.4389 32.0659 19.442 33.2995 19.4334C33.5314 19.4318 33.6754 19.5088 33.8021 19.7054C34.809 21.2676 35.8261 22.8232 36.8397 24.3808L38.369 26.7304C38.4082 26.792 38.4467 26.8515 38.4896 26.9091C38.5661 27.0117 38.6407 26.9972 38.7098 26.8995C38.7406 26.8577 38.7678 26.8148 38.7958 26.7717C39.8984 25.0757 41.0008 23.3798 42.1029 21.6838C42.5396 21.0123 42.9809 20.3439 43.413 19.6693C43.5181 19.5054 43.6455 19.4337 43.8432 19.4346C45.1482 19.4405 46.4536 19.4346 47.7596 19.4386C48.0918 19.4386 48.1124 19.4642 48.1186 19.7848C48.1186 19.8464 48.1186 19.908 48.1186 19.9696C48.1186 25.9658 48.1186 31.9612 48.1186 37.9557C48.1186 38.4861 48.1741 38.4942 47.5789 38.4932C46.4071 38.491 45.2352 38.491 44.0633 38.4932C43.9915 38.4932 43.9193 38.4954 43.8475 38.4932C43.5909 38.4812 43.5539 38.4443 43.5406 38.1787C43.5357 38.0765 43.5388 37.9736 43.5388 37.8707C43.5388 34.7289 43.5383 31.587 43.5372 28.4452C43.5372 28.3118 43.5628 28.1772 43.4913 28.0081Z" fill="white"/>
    <path d="M81.2419 30.5044C81.2838 30.3904 81.2653 30.2678 81.2653 30.1489C81.2666 26.7512 81.2666 23.3527 81.2653 19.9534C81.2653 19.4343 81.2653 19.434 81.7921 19.434C82.9845 19.434 84.1769 19.434 85.3693 19.434C85.4618 19.434 85.5544 19.434 85.6469 19.4393C85.7684 19.4445 85.8365 19.5089 85.8436 19.6312C85.8483 19.7131 85.8498 19.795 85.8498 19.8776C85.8498 25.9344 85.8498 31.9911 85.8498 38.0479C85.8498 38.0787 85.8498 38.1095 85.8498 38.1403C85.8424 38.4591 85.819 38.4877 85.4902 38.488C84.1848 38.4902 82.8794 38.4859 81.5737 38.4917C81.3668 38.4917 81.2345 38.4175 81.1133 38.2499C78.6214 34.7933 76.1263 31.3388 73.6282 27.8865L73.2535 27.3678C73.1869 27.5378 73.206 27.6607 73.206 27.7796C73.2048 31.1679 73.2048 34.5555 73.206 37.9425C73.206 38.5081 73.227 38.4899 72.674 38.4896C71.4816 38.4884 70.2892 38.4884 69.0968 38.4896C69.0043 38.4896 68.9118 38.4896 68.8192 38.4831C68.6987 38.4763 68.6296 38.4135 68.625 38.2897C68.6219 38.2074 68.6203 38.1255 68.6203 38.0433C68.6203 31.9867 68.6203 25.9299 68.6203 19.873C68.6203 19.8523 68.6203 19.832 68.6203 19.8114C68.6246 19.4596 68.6419 19.4365 68.9808 19.4359C70.2862 19.4334 71.5916 19.4377 72.8973 19.4319C73.0916 19.4319 73.2236 19.496 73.3365 19.6549C73.8539 20.3831 74.38 21.1051 74.9031 21.8292L79.9177 28.7715C80.3026 29.3039 80.6879 29.8363 81.0738 30.3686C81.1136 30.4234 81.1352 30.5041 81.2419 30.5044Z" fill="white"/>
    <path d="M58.398 19.441C60.9163 19.441 63.4348 19.441 65.9534 19.441C66.4367 19.441 66.4376 19.441 66.4376 19.9107C66.4376 21.1223 66.4376 22.3338 66.4376 23.5454C66.4376 23.5762 66.4376 23.607 66.4376 23.6378C66.4336 24.0043 66.4222 24.0188 66.054 24.0194C64.4504 24.0207 62.8468 24.0207 61.2432 24.0194H61.0581C60.6902 24.0225 60.6785 24.0311 60.6785 24.402C60.6773 26.784 60.6773 29.1661 60.6785 31.5481V38.0474C60.6761 38.4913 60.6736 38.4947 60.2329 38.495C58.9994 38.495 57.7658 38.495 56.5323 38.495C56.4604 38.495 56.3886 38.4919 56.3164 38.4913C56.1622 38.4913 56.0953 38.4069 56.0965 38.2581C56.0965 38.1555 56.0947 38.053 56.0947 37.9501C56.0947 33.4634 56.0947 28.9766 56.0947 24.4895C56.0947 23.9942 56.1197 24.0191 55.6253 24.0194C54.0012 24.0194 52.377 24.0194 50.7529 24.0194C50.3048 24.0194 50.3035 24.0194 50.3032 23.5805C50.3032 22.3484 50.3032 21.1163 50.3032 19.8842C50.3032 19.8121 50.3063 19.7404 50.3054 19.6686C50.3035 19.5124 50.3883 19.4468 50.5354 19.4441C50.6381 19.4441 50.7408 19.4407 50.8438 19.4407L58.398 19.441Z" fill="white"/>
  </g>
  <defs>
    <clipPath id="clip0_510_4686">
      <rect width="114" height="57" fill="white" transform="translate(0.524658 0.462646)"/>
    </clipPath>
  </defs>
</svg>