<svg width="114" height="57" viewBox="0 0 114 57" fill="none" xmlns="http://www.w3.org/2000/svg">
<g clip-path="url(#clip0_237_21237)">
<path d="M57.0547 56.9952C56.4259 56.9952 55.8911 57.0081 55.3586 56.9924C53.9622 56.952 52.5649 56.9357 51.1707 56.8365C50.6995 56.803 50.2267 56.798 49.7549 56.766C48.7403 56.697 47.727 56.62 46.7142 56.5285C45.691 56.4361 44.6696 56.3317 43.6498 56.2082C42.1305 56.0234 40.6155 55.8077 39.1048 55.5613C37.3298 55.271 35.5648 54.9303 33.8099 54.5393C31.8239 54.0961 29.8536 53.5903 27.9031 53.0084C25.9624 52.4296 24.0452 51.7831 22.1557 51.054C20.285 50.3326 18.4489 49.5321 16.6569 48.6333C14.0156 47.3088 11.4887 45.7948 9.14339 43.9914C8.28824 43.3334 7.47164 42.6305 6.67909 41.8968C5.32575 40.65 4.11418 39.2579 3.06636 37.7459C2.11037 36.3619 1.33941 34.8813 0.799115 33.2842C0.424026 32.1855 0.17864 31.0468 0.0679359 29.8913C-0.213619 26.9035 0.415493 24.0971 1.77146 21.4376C2.55938 19.8922 3.5496 18.4849 4.68538 17.1764C6.46075 15.1314 8.51707 13.4059 10.7344 11.8624C13.0429 10.2551 15.4961 8.90012 18.0406 7.7093C21.0603 6.29578 24.1775 5.13299 27.368 4.16518C29.5029 3.51813 31.6587 2.95188 33.8355 2.46644C35.9421 1.99824 38.0626 1.60233 40.1968 1.2787C41.4461 1.08803 42.6969 0.911229 43.952 0.765226C45.0947 0.632776 46.2392 0.517981 47.3856 0.420851C48.7881 0.303186 50.1919 0.216325 51.5972 0.137779C52.0996 0.109749 52.6031 0.0934262 53.1058 0.0783331C54.9444 0.0228889 56.7839 -0.0239328 58.6234 0.0145701C59.8765 0.0408548 61.1292 0.0819246 62.3814 0.137779C63.8896 0.205955 65.3959 0.307298 66.9002 0.441802C68.3118 0.569529 69.7208 0.722923 71.1272 0.901987C73.4931 1.19872 75.8449 1.58107 78.1824 2.04906C80.3498 2.4803 82.4982 2.99079 84.6277 3.58056C87.2534 4.30356 89.8387 5.16602 92.3725 6.16426C95.0508 7.22509 97.6529 8.44609 100.148 9.89134C102.207 11.0828 104.172 12.4097 105.994 13.9394C108.276 15.8547 110.28 18.0148 111.778 20.6084C112.863 22.4873 113.593 24.4895 113.878 26.6481C114.203 29.1123 113.875 31.4979 113.005 33.8164C112.22 35.9051 111.049 37.7647 109.62 39.4705C107.862 41.5718 105.809 43.3494 103.577 44.9284C102.065 45.9937 100.489 46.9659 98.8587 47.8398C95.8942 49.4378 92.8067 50.7525 89.6291 51.8638C86.6189 52.9166 83.5539 53.7754 80.4441 54.4774C78.2688 54.9686 76.0792 55.3838 73.8755 55.723C72.596 55.9202 71.3141 56.0973 70.0284 56.2467C68.651 56.4066 67.2711 56.5401 65.8887 56.6471C64.4547 56.7574 63.0207 56.8368 61.5827 56.8978C60.0417 56.9619 58.5019 57.0059 57.0547 56.9952ZM56.7842 52.4195C58.4939 52.4281 60.0442 52.3754 61.595 52.3172C63.0531 52.2627 64.5087 52.1724 65.9633 52.0649C67.3365 51.9636 68.7061 51.8241 70.0735 51.6682C71.8087 51.4705 73.5375 51.22 75.2593 50.929C77.8944 50.4817 80.5086 49.9322 83.0922 49.2499C85.9358 48.499 88.7357 47.6088 91.467 46.5153C94.1247 45.452 96.6994 44.2245 99.1387 42.7232C101.344 41.3661 103.394 39.8139 105.18 37.9279C106.345 36.6958 107.347 35.3513 108.106 33.8312C109.13 31.7813 109.598 29.623 109.353 27.3319C109.168 25.6005 108.598 23.9951 107.738 22.4879C106.594 20.4827 105.055 18.8108 103.32 17.3098C101.84 16.0293 100.229 14.9284 98.5469 13.9304C96.3864 12.6488 94.1253 11.5698 91.7979 10.6278C89.4622 9.6828 87.0772 8.88287 84.6533 8.19444C81.249 7.22724 77.7948 6.49107 74.3011 5.93108C72.6975 5.67419 71.0894 5.45621 69.4767 5.27715C68.3844 5.1561 67.2909 5.04397 66.1952 4.9605C65.0791 4.8759 63.9619 4.80351 62.8437 4.74334C61.3246 4.66264 59.8045 4.62752 58.2848 4.59487C56.3636 4.55391 54.4427 4.61089 52.522 4.68975C51.3726 4.73677 50.2239 4.79755 49.0758 4.87209C47.6613 4.9645 46.251 5.10127 44.8411 5.24635C43.1951 5.41597 41.5556 5.63107 39.9224 5.89165C37.039 6.34845 34.1796 6.92353 31.3514 7.6517C28.3823 8.41621 25.4634 9.33104 22.6136 10.4639C19.8197 11.5747 17.1179 12.8693 14.5673 14.4683C12.8215 15.562 11.1735 16.7855 9.67967 18.2061C8.26511 19.5513 7.03619 21.0464 6.09963 22.7679C5.25959 24.3127 4.72948 25.9551 4.60643 27.712C4.46303 29.7635 4.87659 31.7135 5.75733 33.5685C6.5764 35.2934 7.7091 36.7978 9.03207 38.1642C10.3446 39.5195 11.8075 40.697 13.3646 41.7591C16.2131 43.7021 19.2856 45.221 22.4798 46.4996C24.9432 47.4853 27.4627 48.3055 30.0217 49.01C33.2653 49.9032 36.5536 50.584 39.8733 51.1153C42.4505 51.5278 45.0428 51.8238 47.6446 52.0434C49.3849 52.19 51.128 52.2911 52.8739 52.3468C54.229 52.3887 55.5849 52.4546 56.7842 52.4195Z" fill="white"/>
<path d="M42.9666 27.5455C42.83 27.6761 42.7593 27.8138 42.6767 27.941C41.7636 29.3437 40.843 30.7418 39.9475 32.1557C39.7566 32.4569 39.5413 32.5607 39.1956 32.5505C38.4247 32.5284 37.6537 32.5308 36.8828 32.5505C36.5778 32.5582 36.3977 32.452 36.2351 32.1963C35.2711 30.6919 34.2923 29.1983 33.3147 27.7019C33.2713 27.6351 33.2432 27.5522 33.1436 27.5082C33.0708 27.6179 33.1047 27.7417 33.1047 27.855C33.1025 31.0683 33.1018 34.282 33.1029 37.4962C33.1029 37.6093 33.1011 37.7223 33.0976 37.835C33.0939 37.9582 33.0264 38.0223 32.9049 38.0287C32.8229 38.033 32.7405 38.0346 32.6582 38.0346H28.9884C28.9369 38.0346 28.8854 38.0346 28.8342 38.0327C28.5986 38.0192 28.569 37.9915 28.5567 37.7629C28.552 37.681 28.5545 37.5987 28.5545 37.5165C28.5545 31.5109 28.5545 25.5053 28.5545 19.4999C28.5545 18.9929 28.4944 18.9729 29.0741 18.9741C30.3077 18.9763 31.5412 18.9794 32.7748 18.9707C33.0067 18.9692 33.1507 19.0462 33.2774 19.2427C34.2843 20.805 35.3013 22.3605 36.315 23.9182L37.8443 26.2678C37.8835 26.3294 37.922 26.3888 37.9649 26.4464C38.0413 26.549 38.116 26.5345 38.1851 26.4369C38.2159 26.395 38.243 26.3522 38.2711 26.3091C39.3737 24.6131 40.4761 22.9171 41.5782 21.2211C42.0149 20.5496 42.4562 19.8812 42.8882 19.2067C42.9934 19.0428 43.1208 18.971 43.3184 18.972C44.6235 18.9778 45.9289 18.972 47.2349 18.976C47.5671 18.976 47.5877 19.0015 47.5939 19.3222C47.5939 19.3838 47.5939 19.4454 47.5939 19.507C47.5939 25.5032 47.5939 31.4985 47.5939 37.4931C47.5939 38.0235 47.6494 38.0315 47.0542 38.0306C45.8823 38.0283 44.7105 38.0283 43.5386 38.0306C43.4668 38.0306 43.3946 38.0327 43.3228 38.0306C43.0662 38.0186 43.0292 37.9816 43.0159 37.7161C43.011 37.6138 43.0141 37.5109 43.0141 37.4081C43.0141 34.2662 43.0135 31.1244 43.0125 27.9826C43.0125 27.8492 43.0381 27.7146 42.9666 27.5455Z" fill="white"/>
<path d="M80.7173 30.0417C80.7592 29.9278 80.7407 29.8052 80.7407 29.6863C80.7419 26.2886 80.7419 22.8901 80.7407 19.4907C80.7407 18.9717 80.7407 18.9714 81.2674 18.9714C82.4599 18.9714 83.6523 18.9714 84.8447 18.9714C84.9372 18.9714 85.0297 18.9714 85.1223 18.9766C85.2438 18.9819 85.3119 19.0462 85.319 19.1685C85.3236 19.2505 85.3252 19.3324 85.3252 19.4149C85.3252 25.4717 85.3252 31.5285 85.3252 37.5852C85.3252 37.616 85.3252 37.6468 85.3252 37.6776C85.3178 37.9964 85.2943 38.0251 84.9656 38.0254C83.6602 38.0276 82.3548 38.0232 81.0491 38.0291C80.8422 38.0291 80.7099 37.9549 80.5887 37.7873C78.0967 34.3307 75.6017 30.8762 73.1036 27.4239L72.7289 26.9051C72.6623 27.0752 72.6814 27.1981 72.6814 27.317C72.6802 30.7052 72.6802 34.0929 72.6814 37.4799C72.6814 38.0454 72.7024 38.0272 72.1494 38.0269C70.957 38.0257 69.7646 38.0257 68.5722 38.0269C68.4796 38.0269 68.3871 38.0269 68.2946 38.0205C68.174 38.0137 68.105 37.9509 68.1003 37.827C68.0972 37.7448 68.0957 37.6629 68.0957 37.5806C68.0957 31.5241 68.0957 25.4673 68.0957 19.4103C68.0957 19.3897 68.0957 19.3694 68.0957 19.3487C68.1 18.997 68.1173 18.9739 68.4562 18.9732C69.7616 18.9708 71.067 18.9751 72.3727 18.9692C72.567 18.9692 72.699 19.0333 72.8118 19.1922C73.3293 19.9204 73.8554 20.6424 74.3784 21.3666L79.3931 28.3088C79.7779 28.8413 80.1633 29.3736 80.5492 29.9059C80.589 29.9607 80.6106 30.0414 80.7173 30.0417Z" fill="white"/>
<path d="M57.8731 18.9783C60.3914 18.9783 62.9099 18.9783 65.4285 18.9783C65.9118 18.9783 65.9127 18.9783 65.9127 19.4481C65.9127 20.6596 65.9127 21.8712 65.9127 23.0827C65.9127 23.1135 65.9127 23.1443 65.9127 23.1751C65.9087 23.5417 65.8973 23.5562 65.5291 23.5568C63.9255 23.558 62.3219 23.558 60.7183 23.5568H60.5332C60.1653 23.5599 60.1536 23.5685 60.1536 23.9394C60.1524 26.3214 60.1524 28.7034 60.1536 31.0855V37.5848C60.1512 38.0286 60.1487 38.032 59.708 38.0323C58.4745 38.0323 57.2409 38.0323 56.0074 38.0323C55.9355 38.0323 55.8637 38.0293 55.7915 38.0286C55.6373 38.0286 55.5704 37.9442 55.5716 37.7955C55.5716 37.6929 55.5698 37.5903 55.5698 37.4874C55.5698 33.0008 55.5698 28.5139 55.5698 24.0268C55.5698 23.5315 55.5948 23.5565 55.1004 23.5568C53.4763 23.5568 51.8521 23.5568 50.2279 23.5568C49.7799 23.5568 49.7786 23.5568 49.7783 23.1179C49.7783 21.8858 49.7783 20.6537 49.7783 19.4216C49.7783 19.3495 49.7814 19.2777 49.7805 19.206C49.7786 19.0498 49.8634 18.9842 50.0105 18.9814C50.1132 18.9814 50.2159 18.978 50.3189 18.978L57.8731 18.9783Z" fill="white"/>
</g>
<defs>
<clipPath id="clip0_237_21237">
<rect width="114" height="57" fill="white"/>
</clipPath>
</defs>
</svg>
