<svg xmlns="http://www.w3.org/2000/svg" width="100" height="100" viewBox="0 0 100 100" fill="none">
  <path d="M56.7604 87.4226L57.3686 99.0708L48.9161 99.5121L48.8052 97.387L54.7651 97.0758L54.6124 94.1518L49.2916 94.4296L49.1857 92.4004L54.5064 92.1225L54.2678 87.5528L56.7604 87.4226Z" fill="#FDE102"/>
  <path d="M41.4867 86.5695C42.6273 86.8447 43.5678 87.3129 44.308 87.9743C45.0482 88.6357 45.553 89.4542 45.8223 90.4299C46.0892 91.416 46.0738 92.526 45.7761 93.7599C45.481 94.9835 44.9911 95.9681 44.3065 96.7136C43.6194 97.4696 42.7956 97.9731 41.8353 98.2243C40.875 98.4754 39.8245 98.4634 38.6839 98.1882C37.5433 97.9131 36.6029 97.4448 35.8626 96.7834C35.1121 96.1196 34.6085 95.2959 34.352 94.3123C34.0827 93.3366 34.0956 92.2369 34.3907 91.0134C34.6884 89.7794 35.1808 88.7845 35.8679 88.0285C36.5421 87.2804 37.3646 86.7821 38.3353 86.5335C39.2956 86.2823 40.3461 86.2943 41.4867 86.5695ZM40.9877 88.6382C40.013 88.403 39.1603 88.5265 38.4295 89.0086C37.6962 89.501 37.1795 90.3694 36.8793 91.6137C36.5792 92.858 36.6444 93.8613 37.075 94.6235C37.5056 95.3857 38.2082 95.8844 39.1829 96.1196C40.1576 96.3547 41.0104 96.2312 41.7411 95.7491C42.4615 95.2646 42.9718 94.4001 43.272 93.1558C43.5746 91.9012 43.5107 90.8927 43.0801 90.1305C42.6495 89.3682 41.952 88.8708 40.9877 88.6382Z" fill="#FDE102"/>
  <path d="M35.3098 85.0525L29.387 95.1008L24.4248 92.176C23.2486 91.4827 22.5173 90.7173 22.2309 89.8799C21.9444 89.0424 22.0747 88.1597 22.6218 87.2316C22.9738 86.6343 23.4361 86.2072 24.0085 85.9502C24.5663 85.6971 25.1542 85.666 25.7722 85.8569L25.8291 85.7604C24.9504 84.9824 24.836 84.0421 25.486 82.9394L26.4122 81.3681C26.5205 81.1843 26.6251 80.9859 26.7258 80.7729C26.8212 80.5691 26.8844 80.3463 26.9154 80.1046L29.0795 81.3802C29.0642 81.5321 29.0108 81.7173 28.9192 81.9357C28.8276 82.1541 28.7087 82.3874 28.5624 82.6355L27.8556 83.8347C27.601 84.2666 27.5117 84.6597 27.5877 85.014C27.6544 85.3629 27.991 85.7161 28.5975 86.0735L30.9821 87.4791L33.1595 83.785L35.3098 85.0525ZM29.9747 89.1883L27.4798 87.7177C26.9009 87.3765 26.4061 87.2706 25.9955 87.4C25.5758 87.524 25.2386 87.802 24.984 88.2339C24.6861 88.7393 24.6265 89.187 24.8052 89.5771C24.9746 89.9618 25.3029 90.2977 25.7899 90.5847L28.2848 92.0553L29.9747 89.1883Z" fill="#FDE102"/>
  <path d="M21.2691 74.9488L11.345 81.0775L9.34414 77.8375L14.5935 71.8126L14.543 71.7309L6.81365 73.7399L4.8128 70.4999L14.7369 64.3712L16.0064 66.4268L12.0857 68.848L8.28441 71.1579L8.34326 71.2532L17.4524 68.7683L18.5453 70.5381L12.2441 77.5698L12.3113 77.6787L16.0979 75.284L19.9913 72.8796L21.2691 74.9488Z" fill="#FDE102"/>
  <path d="M14.2516 61.5328L5.05301 63.9228L5.91807 67.2523L3.82749 67.7955L1.4536 58.6588L3.54419 58.1156L4.42936 61.5225L13.628 59.1325L14.2516 61.5328Z" fill="#FDE102"/>
  <path d="M12.4248 54.3901L0.765625 54.0534L0.851549 51.0786L9.22994 46.4066L9.23317 46.2946L5.50395 46.2829L0.993832 46.1526L1.06313 43.7537L12.7223 44.0904L12.641 46.9052L4.4385 51.5824L4.43527 51.6943L7.81171 51.7278L12.4978 51.8632L12.4248 54.3901Z" fill="#FDE102"/>
  <path d="M17.2015 32.4321C16.6889 33.3554 16.0908 34.0481 15.4072 34.5104C14.7236 34.9727 13.9875 35.2107 13.1991 35.2244C12.4065 35.2236 11.6046 34.998 10.7932 34.5476L4.47024 31.0373L5.67396 28.8691L11.983 32.3715C12.6731 32.7547 13.3015 32.8534 13.8681 32.6678C14.4306 32.4676 14.9009 32.0272 15.2788 31.3464C15.6775 30.6283 15.7959 29.9864 15.6341 29.4208C15.4775 28.8459 15.0681 28.3746 14.4059 28.007L8.09696 24.5045L9.30069 22.3363L15.6237 25.8465C16.463 26.3124 17.0801 26.893 17.4751 27.588C17.8752 28.2737 18.0526 29.031 18.0073 29.8599C17.9619 30.6887 17.6933 31.5461 17.2015 32.4321Z" fill="#FDE102"/>
  <path d="M23.538 23.8879C22.4069 24.9892 21.3015 25.5741 20.222 25.6426C19.15 25.7037 18.2197 25.3292 17.4309 24.5191L19.2422 22.7556C19.6517 23.1609 20.1129 23.3594 20.626 23.3512C21.1316 23.3353 21.6825 23.0372 22.2786 22.4568C22.7371 22.0103 23.0259 21.5729 23.1447 21.1445C23.2562 20.7085 23.1482 20.3224 22.8208 19.9861C22.5603 19.7186 22.3021 19.5681 22.0461 19.5345C21.7826 19.4932 21.4686 19.5682 21.104 19.7595C20.7393 19.9507 20.2639 20.2499 19.6776 20.6569C18.5658 21.4416 17.5868 21.8886 16.7405 21.998C15.8868 22.0997 15.1065 21.7876 14.3996 21.0615C13.6331 20.2743 13.3208 19.3725 13.4627 18.3561C13.6047 17.3246 14.1801 16.3177 15.189 15.3355C15.8462 14.6956 16.5122 14.2481 17.187 13.9932C17.8694 13.7307 18.5228 13.6603 19.1473 13.7818C19.7717 13.9033 20.3258 14.2124 20.8094 14.7092L19.0096 16.4615C18.5999 16.0713 18.1681 15.926 17.7142 16.0255C17.268 16.1176 16.8461 16.3571 16.4487 16.7441C16.0283 17.1533 15.7815 17.5649 15.708 17.9788C15.6348 18.3776 15.7433 18.726 16.0335 19.0241C16.279 19.2763 16.53 19.4041 16.7865 19.4076C17.0505 19.4035 17.3688 19.2946 17.7413 19.0809C18.1063 18.8595 18.5705 18.5564 19.1338 18.1717C19.5375 17.8829 19.9521 17.6207 20.3776 17.385C20.8032 17.1493 21.2428 16.9892 21.6966 16.9048C22.1428 16.8127 22.6025 16.849 23.0755 17.0137C23.5411 17.1708 24.0194 17.5016 24.5105 18.006C25.2397 18.755 25.5446 19.6491 25.4251 20.6885C25.3058 21.7128 24.6768 22.7792 23.538 23.8879Z" fill="#FDE102"/>
  <path d="M28.1223 19.4417L22.5781 9.17958L30.0389 5.14882L31.0504 7.02105L25.7856 9.8654L27.0253 12.1599L31.6003 9.68825L32.5509 11.4479L27.9759 13.9196L29.3068 16.383L34.5998 13.5235L35.6112 15.3957L28.1223 19.4417Z" fill="#FDE102"/>
  <path d="M37.2179 14.6077L34.7561 3.20646L40.3863 1.99076C41.7209 1.70259 42.7774 1.7691 43.5559 2.1903C44.3343 2.61149 44.8372 3.34862 45.0646 4.40168C45.2109 5.0794 45.1609 5.70676 44.9144 6.28377C44.6762 6.8481 44.2652 7.26967 43.6816 7.54846L43.7052 7.65794C44.8785 7.63375 45.6003 8.24724 45.8704 9.49841L46.2554 11.2813C46.3004 11.4898 46.3581 11.7066 46.4285 11.9314C46.4967 12.1459 46.6013 12.3525 46.7424 12.5511L44.287 13.0813C44.1952 12.9593 44.1088 12.787 44.028 12.5643C43.9472 12.3417 43.8764 12.0896 43.8156 11.8081L43.5218 10.4475C43.416 9.95744 43.2151 9.60798 42.919 9.3991C42.6333 9.18797 42.1464 9.1567 41.4583 9.30529L38.7526 9.8895L39.6577 14.0809L37.2179 14.6077ZM38.3339 7.95019L41.1647 7.33896C41.8215 7.19713 42.2569 6.93943 42.4709 6.56585C42.6953 6.19002 42.7546 5.75709 42.6488 5.26705C42.525 4.6936 42.2651 4.32411 41.8693 4.1586C41.4839 3.99084 41.0149 3.96661 40.4623 4.08593L37.6315 4.69716L38.3339 7.95019Z" fill="#FDE102"/>
  <path d="M51.917 12.8878C50.3421 12.7787 49.1693 12.3446 48.3986 11.5855C47.6385 10.8272 47.2976 9.88401 47.3757 8.75604L49.8977 8.93078C49.8685 9.50614 50.028 9.98231 50.3761 10.3593C50.725 10.7256 51.3144 10.9375 52.1444 10.995C52.7829 11.0393 53.3014 10.9629 53.6999 10.766C54.0992 10.5584 54.3151 10.2205 54.3476 9.75233C54.3734 9.37989 54.3135 9.08705 54.1679 8.87381C54.023 8.64993 53.7577 8.46582 53.3721 8.32149C52.9865 8.17715 52.4466 8.02213 51.7524 7.85641C50.4264 7.55069 49.4405 7.11885 48.7949 6.56089C48.15 5.99228 47.8625 5.20253 47.9326 4.19162C48.0085 3.09558 48.4726 2.26166 49.3248 1.68987C50.1884 1.10817 51.3226 0.865983 52.7272 0.963307C53.6423 1.02671 54.4198 1.22493 55.0597 1.55795C55.7102 1.89172 56.1982 2.33184 56.5239 2.87832C56.8496 3.42481 56.9885 4.04389 56.9405 4.73556L54.4345 4.56193C54.4523 3.99647 54.2728 3.57773 53.8961 3.30571C53.53 3.03442 53.0702 2.8796 52.5169 2.84126C51.9316 2.80071 51.4603 2.89101 51.1028 3.11216C50.7567 3.32341 50.5693 3.63654 50.5405 4.05155C50.5162 4.4027 50.5882 4.675 50.7566 4.86843C50.9356 5.0626 51.2289 5.22727 51.6365 5.36244C52.0449 5.48696 52.5802 5.63098 53.2425 5.79448C53.7268 5.90288 54.1987 6.03715 54.658 6.19729C55.1174 6.35742 55.5298 6.57846 55.8952 6.86039C56.2613 7.13168 56.5406 7.49853 56.7331 7.96094C56.9263 8.41271 56.9986 8.98975 56.9499 9.69207C56.8777 10.7349 56.4143 11.5582 55.5599 12.1619C54.7168 12.7557 53.5025 12.9977 51.917 12.8878Z" fill="#FDE102"/>
  <path d="M68.8642 17.9165C67.8534 17.3207 67.0904 16.5986 66.5752 15.7501C66.06 14.9016 65.8158 13.9715 65.8427 12.9596C65.875 11.9386 66.2134 10.8813 66.8579 9.78779C67.497 8.70346 68.2527 7.90453 69.125 7.39098C70.0027 6.86824 70.9374 6.62678 71.9293 6.6666C72.9211 6.70641 73.9224 7.02422 74.9332 7.62002C75.944 8.21582 76.707 8.93795 77.2222 9.78641C77.7466 10.6403 77.9881 11.575 77.9466 12.5907C77.9197 13.6025 77.5868 14.6506 76.9476 15.7349C76.3031 16.8284 75.542 17.6366 74.6643 18.1593C73.8012 18.6783 72.8692 18.9151 71.8682 18.8699C70.8763 18.8301 69.875 18.5123 68.8642 17.9165ZM69.9448 16.0832C70.8085 16.5924 71.6602 16.7229 72.4998 16.4749C73.3448 16.2177 74.0923 15.5377 74.7422 14.435C75.3922 13.3323 75.6224 12.3536 75.4327 11.499C75.2431 10.6443 74.7164 9.9624 73.8527 9.45326C72.9889 8.94412 72.1372 8.81357 71.2976 9.06161C70.4672 9.31506 69.7271 9.99313 69.0771 11.0958C68.4217 12.2077 68.1888 13.191 68.3784 14.0457C68.5681 14.9003 69.0902 15.5795 69.9448 16.0832Z" fill="#FDE102"/>
  <path d="M74.2222 20.9865L82.8835 13.1743L84.8768 15.3841L82.0479 24.5505L82.1229 24.6337L84.8269 22.0655L88.1774 19.0435L89.7849 20.8257L81.1235 28.6379L79.2375 26.5468L81.9356 17.4983L81.8606 17.4151L79.3966 19.7238L75.9154 22.8637L74.2222 20.9865Z" fill="#FDE102"/>
  <path d="M81.9194 29.9162L92.4269 24.8523L93.5105 27.1009L84.9921 31.2061L87.2427 35.8761L85.2537 36.8347L81.9194 29.9162Z" fill="#FDE102"/>
  <path d="M86.6893 41.8342L91.0722 41.0759L97.4461 35.589L97.9316 38.3953L93.6732 41.8438L93.6923 41.9541L98.8672 43.803L99.35 46.5935L91.4977 43.5354L87.1148 44.2937L86.6893 41.8342Z" fill="#FDE102"/>
</svg>