<svg width="462" height="460" viewBox="0 0 462 460" fill="none" xmlns="http://www.w3.org/2000/svg">
<g clip-path="url(#clip0_219_16068)">
<g clip-path="url(#clip1_219_16068)">
<path fill-rule="evenodd" clip-rule="evenodd" d="M233.994 232.938L117.375 333.466C124.699 341.969 132.925 349.651 141.908 356.377C143.457 357.544 144.417 357.078 146.176 356.765C152.501 355.641 149.814 361.898 153.135 364.016C162.408 369.909 173.954 375.18 184.357 378.714C186.119 379.399 187.956 379.873 189.83 380.125C192.998 380.542 193.464 381.037 196.235 382.125C198.07 382.848 202.096 383.603 204.161 384.018C235.588 390.257 268.181 386.492 297.358 373.254C299.522 372.278 300.43 371.031 302.931 370.181C304.148 369.838 305.324 369.368 306.441 368.776C316.472 363.409 325.887 356.963 334.519 349.553C357.773 329.559 374.497 303.051 382.53 273.454C383.215 270.936 383.071 268.707 383.962 265.989C384.569 264.347 385.048 262.66 385.396 260.944C392.4 223.345 385.112 184.485 364.958 151.979C363.017 148.814 360.141 149.924 359.085 144.855C358.468 141.886 358.25 141.98 356.451 139.619C354.572 137.156 352.628 134.764 350.609 132.413L233.994 232.938Z" fill="url(#paint0_linear_219_16068)"/>
<path fill-rule="evenodd" clip-rule="evenodd" d="M231.334 229.85L113.636 331.309C121.865 340.855 131.997 350.2 142.409 357.322C144.5 358.753 145.7 358.868 148.012 358C149.134 357.576 148.935 357.7 149.064 358.982C149.415 362.511 151.36 363.17 154.145 364.767C162.675 369.651 171.651 373.714 180.951 376.898C185.012 378.268 187.637 377.791 191.717 377.987C197.483 378.288 194.469 380.769 199.496 381.974C203.555 382.868 207.658 383.552 211.788 384.021C239.561 387.499 268.294 383.501 293.896 372.093C296.339 371.002 296.191 370.603 297.975 369.104C300.157 367.263 303.706 367.255 306.508 365.823C310.129 363.875 313.649 361.744 317.055 359.439C322.447 355.861 327.615 351.956 332.528 347.745L332.781 347.527C353.648 329.476 369.823 305.927 378.523 279.686C380.019 275.178 378.473 267.762 380.495 264.375C382.113 261.69 383.066 263.032 383.971 258.798C384.43 256.592 385.948 248.487 385.648 246.66C385.398 245.137 384.685 244.949 385.115 242.966C385.618 240.675 386.41 239.804 386.529 237.168C386.754 232.198 386.762 227.179 386.534 222.215C385.331 196.861 377.894 172.195 364.881 150.402C363.553 148.195 360.784 148.387 360.443 144.897C360.223 142.726 360.015 142.748 358.793 140.993C355.744 136.635 352.496 132.456 349.034 128.422L231.334 229.85Z" fill="#D17E1F"/>
<path fill-rule="evenodd" clip-rule="evenodd" d="M231.334 229.85L121.868 324.212C173.982 384.668 265.235 391.425 325.691 339.311C386.147 287.197 392.909 195.949 340.794 135.493L231.334 229.85Z" fill="#004400"/>
<path fill-rule="evenodd" clip-rule="evenodd" d="M262.344 204.582C266.311 209.439 269.076 215.164 270.414 221.291L371.093 202.166C366.375 178.373 355.664 156.177 339.973 137.68L262.344 204.582ZM270.823 223.472L371.506 204.343C375.854 228.218 374.032 252.808 366.212 275.782L269.448 242.021C271.341 236.049 271.811 229.717 270.818 223.531L270.823 223.472ZM268.737 244.09L365.497 277.846C357.319 300.685 343.448 321.059 325.196 337.039L258.273 259.404C262.917 255.194 266.502 249.947 268.737 244.09ZM256.594 260.852L323.516 338.487C305.018 354.18 282.821 364.892 259.026 369.61L239.901 268.932C246.023 267.588 251.742 264.82 256.594 260.852ZM237.699 269.335L256.833 370.006C232.958 374.351 208.369 372.529 185.395 364.712L219.155 267.948C225.127 269.839 231.459 270.308 237.645 269.318L237.699 269.335ZM217.1 267.234L183.339 363.998C160.501 355.825 140.127 341.959 124.144 323.713L201.779 256.79C205.986 261.439 211.234 265.025 217.094 267.254L217.1 267.234Z" fill="url(#paint1_radial_219_16068)"/>
<mask id="mask0_219_16068" style="mask-type:luminance" maskUnits="userSpaceOnUse" x="121" y="135" width="255" height="240">
<path d="M231.334 229.85L121.868 324.212C173.982 384.668 265.235 391.425 325.691 339.311C386.147 287.197 392.909 195.949 340.794 135.493L231.334 229.85Z" fill="white"/>
</mask>
<g mask="url(#mask0_219_16068)">
<g style="mix-blend-mode:multiply" opacity="0.65">
<path d="M205.312 199.663C221.984 185.292 247.15 187.156 261.522 203.828C275.893 220.501 274.028 245.666 257.356 260.038C240.684 274.41 215.518 272.545 201.147 255.873C186.775 239.201 188.64 214.035 205.312 199.663Z" fill="#006B00"/>
</g>
</g>
<path fill-rule="evenodd" clip-rule="evenodd" d="M256.001 258.467C263.589 251.924 268.268 242.635 269.008 232.642C269.749 222.65 266.49 212.773 259.95 205.182L230.69 171.24L173.452 220.58L202.712 254.522C209.256 262.111 218.546 266.79 228.54 267.53C238.533 268.27 248.411 265.01 256.001 258.467Z" fill="url(#paint2_radial_219_16068)"/>
<g style="mix-blend-mode:screen">
<path fill-rule="evenodd" clip-rule="evenodd" d="M249.352 250.753C255.175 245.731 258.766 238.602 259.333 230.934C259.901 223.265 257.399 215.685 252.378 209.861C247.358 204.036 240.229 200.445 232.561 199.876C224.892 199.307 217.312 201.807 211.486 206.826C205.661 211.848 202.069 218.977 201.501 226.647C200.933 234.316 203.434 241.898 208.456 247.723C213.477 253.548 220.607 257.14 228.276 257.708C235.946 258.276 243.527 255.775 249.352 250.753Z" fill="#FFF200"/>
</g>
<path fill-rule="evenodd" clip-rule="evenodd" d="M250.575 252.17C256.494 247.068 260.144 239.822 260.722 232.028C261.299 224.234 258.757 216.53 253.654 210.61C248.551 204.69 241.305 201.039 233.511 200.461C225.716 199.883 218.011 202.424 212.09 207.526C206.169 212.63 202.518 219.877 201.941 227.672C201.363 235.468 203.906 243.174 209.01 249.095C211.537 252.026 214.616 254.431 218.073 256.172C221.53 257.913 225.295 258.957 229.155 259.242C233.015 259.528 236.893 259.05 240.568 257.837C244.243 256.624 247.644 254.698 250.575 252.17Z" fill="url(#paint3_linear_219_16068)"/>
<path fill-rule="evenodd" clip-rule="evenodd" d="M249.216 250.595C254.723 245.848 258.118 239.108 258.655 231.858C259.193 224.608 256.828 217.441 252.081 211.934C247.334 206.428 240.594 203.032 233.344 202.495C226.093 201.958 218.927 204.323 213.42 209.07C210.693 211.42 208.456 214.284 206.837 217.499C205.217 220.714 204.247 224.217 203.981 227.807C203.715 231.397 204.158 235.004 205.286 238.422C206.414 241.841 208.205 245.004 210.555 247.73C212.906 250.457 215.77 252.694 218.985 254.314C222.2 255.933 225.702 256.904 229.292 257.17C232.882 257.436 236.489 256.992 239.908 255.864C243.326 254.736 246.489 252.946 249.216 250.595Z" fill="url(#paint4_radial_219_16068)"/>
</g>
</g>
<g clip-path="url(#clip2_219_16068)">
<g clip-path="url(#clip3_219_16068)">
<path fill-rule="evenodd" clip-rule="evenodd" d="M228.572 226.646L111.952 327.174C104.622 318.677 98.2365 309.408 92.9076 299.532C91.9818 297.828 92.5837 296.947 93.1529 295.253C95.1971 289.164 88.6122 290.898 87.0069 287.302C82.5453 277.261 79.0337 265.065 77.0714 254.254C76.6532 252.411 76.4555 250.524 76.4823 248.633C76.5373 245.439 76.1163 244.905 75.4482 242.003C75.0033 240.081 74.8503 235.988 74.7442 233.885C73.2059 201.881 81.7331 170.2 99.1277 143.292C100.412 141.296 101.779 140.581 102.988 138.233C103.507 137.08 104.146 135.986 104.895 134.969C111.682 125.838 119.446 117.476 128.047 110.031C151.25 89.9773 179.933 77.3431 210.391 73.7611C212.983 73.4546 215.166 73.9248 217.986 73.445C219.7 73.0865 221.439 72.8608 223.187 72.7699C261.408 71.3841 298.769 84.321 327.949 109.046C330.793 111.432 329.272 114.113 334.13 115.905C336.976 116.953 336.851 117.155 338.92 119.281C341.08 121.503 343.159 123.778 345.187 126.121L228.572 226.646Z" fill="url(#paint5_linear_219_16068)"/>
<path fill-rule="evenodd" clip-rule="evenodd" d="M231.234 229.733L113.535 331.191C105.306 321.645 97.5566 310.245 92.0468 298.898C90.9397 296.618 91.0035 295.415 92.2029 293.256C92.7876 292.209 92.6349 292.388 91.3865 292.071C87.948 291.204 87.5823 289.182 86.4137 286.193C82.8396 277.036 80.1448 267.559 78.3658 257.891C77.6094 253.673 78.4684 251.147 78.8752 247.082C79.4279 241.335 76.5299 243.951 76.0791 238.8C75.7925 234.654 75.7213 230.495 75.8658 226.341C76.5196 198.359 84.7086 170.529 99.766 146.888C101.205 144.633 101.579 144.838 103.324 143.294C105.466 141.408 105.997 137.898 107.826 135.338C110.287 132.043 112.913 128.876 115.696 125.848C120.029 121.042 124.653 116.506 129.543 112.267L129.796 112.049C150.725 94.0704 176.401 81.5436 203.638 76.8056C208.317 75.9903 215.424 78.6127 219.071 77.1126C221.966 75.9074 220.779 74.7673 225.101 74.496C227.35 74.3669 235.59 74.0607 237.353 74.6265C238.822 75.0987 238.903 75.8315 240.928 75.6985C243.268 75.5381 244.246 74.8838 246.871 75.1544C251.819 75.6647 256.785 76.396 261.662 77.3532C286.562 82.28 309.862 93.2717 329.499 109.355C331.486 110.993 330.888 113.704 334.289 114.556C336.404 115.093 336.351 115.296 337.907 116.764C341.769 120.422 345.423 124.25 348.903 128.269L231.234 229.733Z" fill="#D17E1F"/>
<path fill-rule="evenodd" clip-rule="evenodd" d="M231.234 229.733L121.768 324.094C69.6543 263.638 76.4205 172.386 136.876 120.272C197.332 68.1579 288.58 74.9196 340.695 135.376L231.234 229.733Z" fill="#004400"/>
<path fill-rule="evenodd" clip-rule="evenodd" d="M260.797 202.786C256.578 198.146 251.323 194.567 245.46 192.341L279.216 95.5808C302.054 103.754 322.428 117.62 338.411 135.866L260.797 202.786ZM243.363 191.615L277.124 94.8511C254.15 87.0316 229.56 85.2094 205.685 89.5573L224.814 190.241C231 189.248 237.332 189.718 243.304 191.611L243.363 191.615ZM222.664 190.639L203.538 89.9602C179.743 94.6825 157.547 105.4 139.051 121.097L205.974 198.732C210.823 194.759 216.541 191.986 222.664 190.639ZM204.295 200.179L137.372 122.544C119.124 138.528 105.256 158.903 97.0824 181.743L193.843 215.499C196.074 209.642 199.655 204.393 204.295 200.179ZM193.12 217.617L96.3683 183.854C88.5509 206.827 86.7288 231.417 91.0745 255.292L191.758 236.163C190.767 229.977 191.237 223.645 193.128 217.673L193.12 217.617ZM192.161 238.301L91.478 257.43C96.1957 281.223 106.907 303.419 122.598 321.916L200.233 254.994C196.255 250.148 193.482 244.428 192.14 238.304L192.161 238.301Z" fill="url(#paint6_radial_219_16068)"/>
<mask id="mask1_219_16068" style="mask-type:luminance" maskUnits="userSpaceOnUse" x="86" y="85" width="255" height="240">
<path d="M231.233 229.733L121.768 324.094C69.6533 263.638 76.4195 172.386 136.875 120.272C197.331 68.1579 288.579 74.9196 340.694 135.376L231.233 229.733Z" fill="white"/>
</mask>
<g mask="url(#mask1_219_16068)">
<g style="mix-blend-mode:multiply" opacity="0.65">
<path d="M257.255 259.92C273.927 245.549 275.792 220.383 261.42 203.711C247.049 187.039 221.883 185.174 205.211 199.546C188.539 213.917 186.674 239.083 201.046 255.755C215.417 272.427 240.583 274.292 257.255 259.92Z" fill="#006B00"/>
</g>
</g>
<path fill-rule="evenodd" clip-rule="evenodd" d="M206.565 201.117C214.156 194.576 224.033 191.317 234.025 192.058C244.018 192.798 253.307 197.477 259.85 205.065L289.109 239.008L231.872 288.348L202.612 254.405C196.071 246.814 192.812 236.936 193.554 226.942C194.295 216.949 198.975 207.659 206.565 201.117Z" fill="url(#paint7_radial_219_16068)"/>
<g style="mix-blend-mode:screen">
<path fill-rule="evenodd" clip-rule="evenodd" d="M213.214 208.83C219.04 203.811 226.62 201.311 234.289 201.88C241.957 202.449 249.086 206.041 254.106 211.865C259.127 217.689 261.629 225.269 261.061 232.938C260.494 240.606 256.904 247.736 251.08 252.757C245.255 257.779 237.674 260.28 230.004 259.712C222.335 259.144 215.205 255.552 210.184 249.727C205.163 243.902 202.661 236.321 203.229 228.651C203.798 220.981 207.389 213.852 213.214 208.83Z" fill="#FFF200"/>
</g>
<path fill-rule="evenodd" clip-rule="evenodd" d="M211.994 207.413C217.913 202.31 225.617 199.768 233.412 200.345C241.206 200.923 248.451 204.573 253.554 210.493C258.657 216.413 261.2 224.117 260.623 231.912C260.046 239.707 256.397 246.953 250.478 252.058C244.557 257.162 236.851 259.704 229.056 259.127C221.26 258.549 214.013 254.898 208.909 248.977C206.382 246.046 204.457 242.645 203.245 238.97C202.032 235.294 201.556 231.416 201.842 227.556C202.128 223.697 203.172 219.931 204.914 216.475C206.656 213.019 209.062 209.939 211.994 207.413Z" fill="url(#paint8_linear_219_16068)"/>
<path fill-rule="evenodd" clip-rule="evenodd" d="M213.352 208.988C218.858 204.242 226.025 201.877 233.275 202.414C240.526 202.951 247.266 206.347 252.013 211.853C256.759 217.36 259.124 224.527 258.587 231.777C258.05 239.027 254.654 245.767 249.148 250.514C246.421 252.864 243.258 254.655 239.84 255.783C236.421 256.911 232.814 257.355 229.224 257.089C225.634 256.823 222.131 255.852 218.917 254.232C215.702 252.613 212.837 250.376 210.487 247.649C208.136 244.923 206.346 241.76 205.218 238.341C204.09 234.923 203.646 231.315 203.912 227.725C204.178 224.135 205.149 220.633 206.769 217.418C208.388 214.203 210.625 211.339 213.352 208.988Z" fill="url(#paint9_radial_219_16068)"/>
</g>
</g>
<defs>
<linearGradient id="paint0_linear_219_16068" x1="167.637" y1="391.773" x2="400.872" y2="190.721" gradientUnits="userSpaceOnUse">
<stop stop-color="#A85B00"/>
<stop offset="0.08" stop-color="#AD6001"/>
<stop offset="0.18" stop-color="#BA6F05"/>
<stop offset="0.29" stop-color="#CF870C"/>
<stop offset="0.4" stop-color="#EEA815"/>
<stop offset="0.41" stop-color="#F0AB16"/>
<stop offset="1" stop-color="#6E2A0E"/>
</linearGradient>
<radialGradient id="paint1_radial_219_16068" cx="0" cy="0" r="1" gradientUnits="userSpaceOnUse" gradientTransform="translate(231.244 229.747) rotate(-40.762) scale(144.576 144.576)">
<stop stop-color="#4FBD00"/>
<stop offset="0.21" stop-color="#48AF00"/>
<stop offset="0.6" stop-color="#348A00"/>
<stop offset="1" stop-color="#1C5E00"/>
</radialGradient>
<radialGradient id="paint2_radial_219_16068" cx="0" cy="0" r="1" gradientUnits="userSpaceOnUse" gradientTransform="translate(243.804 269.627) rotate(-40.762) scale(115.793 115.793)">
<stop stop-color="#FCF77A"/>
<stop offset="0.08" stop-color="#FCF375"/>
<stop offset="0.19" stop-color="#FBE765"/>
<stop offset="0.3" stop-color="#FAD44C"/>
<stop offset="0.42" stop-color="#F9BA28"/>
<stop offset="0.54" stop-color="#F79C00"/>
<stop offset="0.61" stop-color="#F19703"/>
<stop offset="0.72" stop-color="#E18A0B"/>
<stop offset="0.84" stop-color="#C57519"/>
<stop offset="0.96" stop-color="#A0572C"/>
<stop offset="1" stop-color="#934D32"/>
</radialGradient>
<linearGradient id="paint3_linear_219_16068" x1="212.09" y1="207.526" x2="250.575" y2="252.17" gradientUnits="userSpaceOnUse">
<stop stop-color="#D48913"/>
<stop offset="1" stop-color="#A85400"/>
</linearGradient>
<radialGradient id="paint4_radial_219_16068" cx="0" cy="0" r="1" gradientUnits="userSpaceOnUse" gradientTransform="translate(231.334 229.85) rotate(-40.762) scale(27.3884)">
<stop stop-color="#027A00"/>
<stop offset="0.43" stop-color="#1B8700"/>
<stop offset="0.79" stop-color="#31D100"/>
<stop offset="0.83" stop-color="#30CB00"/>
<stop offset="0.88" stop-color="#2EBB00"/>
<stop offset="0.93" stop-color="#29A100"/>
<stop offset="0.99" stop-color="#237C00"/>
<stop offset="1" stop-color="#227300"/>
</radialGradient>
<linearGradient id="paint5_linear_219_16068" x1="61.69" y1="268.867" x2="294.924" y2="67.814" gradientUnits="userSpaceOnUse">
<stop stop-color="#A85B00"/>
<stop offset="0.08" stop-color="#AD6001"/>
<stop offset="0.18" stop-color="#BA6F05"/>
<stop offset="0.29" stop-color="#CF870C"/>
<stop offset="0.4" stop-color="#EEA815"/>
<stop offset="0.41" stop-color="#F0AB16"/>
<stop offset="1" stop-color="#6E2A0E"/>
</linearGradient>
<radialGradient id="paint6_radial_219_16068" cx="0" cy="0" r="1" gradientUnits="userSpaceOnUse" gradientTransform="translate(231.324 229.837) rotate(-40.762) scale(144.576 144.576)">
<stop stop-color="#4FBD00"/>
<stop offset="0.21" stop-color="#48AF00"/>
<stop offset="0.6" stop-color="#348A00"/>
<stop offset="1" stop-color="#1C5E00"/>
</radialGradient>
<radialGradient id="paint7_radial_219_16068" cx="0" cy="0" r="1" gradientUnits="userSpaceOnUse" gradientTransform="translate(193.73 211.536) rotate(-40.762) scale(115.793 115.793)">
<stop stop-color="#FCF77A"/>
<stop offset="0.08" stop-color="#FCF375"/>
<stop offset="0.19" stop-color="#FBE765"/>
<stop offset="0.3" stop-color="#FAD44C"/>
<stop offset="0.42" stop-color="#F9BA28"/>
<stop offset="0.54" stop-color="#F79C00"/>
<stop offset="0.61" stop-color="#F19703"/>
<stop offset="0.72" stop-color="#E18A0B"/>
<stop offset="0.84" stop-color="#C57519"/>
<stop offset="0.96" stop-color="#A0572C"/>
<stop offset="1" stop-color="#934D32"/>
</radialGradient>
<linearGradient id="paint8_linear_219_16068" x1="250.478" y1="252.058" x2="211.994" y2="207.413" gradientUnits="userSpaceOnUse">
<stop stop-color="#D48913"/>
<stop offset="1" stop-color="#A85400"/>
</linearGradient>
<radialGradient id="paint9_radial_219_16068" cx="0" cy="0" r="1" gradientUnits="userSpaceOnUse" gradientTransform="translate(231.234 229.733) rotate(-40.762) scale(27.3884)">
<stop stop-color="#027A00"/>
<stop offset="0.43" stop-color="#1B8700"/>
<stop offset="0.79" stop-color="#31D100"/>
<stop offset="0.83" stop-color="#30CB00"/>
<stop offset="0.88" stop-color="#2EBB00"/>
<stop offset="0.93" stop-color="#29A100"/>
<stop offset="0.99" stop-color="#237C00"/>
<stop offset="1" stop-color="#227300"/>
</radialGradient>
<clipPath id="clip0_219_16068">
<rect width="336.694" height="157.919" fill="white" transform="matrix(0.757428 -0.652918 -0.652918 -0.757428 206.948 459.262)"/>
</clipPath>
<clipPath id="clip1_219_16068">
<rect width="336.694" height="209.764" fill="white" transform="matrix(0.757428 -0.652918 -0.652918 -0.757428 211.617 464.679)"/>
</clipPath>
<clipPath id="clip2_219_16068">
<rect width="336.694" height="157.919" fill="white" transform="translate(0.732422 220.038) rotate(-40.762)"/>
</clipPath>
<clipPath id="clip3_219_16068">
<rect width="336.694" height="209.764" fill="white" transform="translate(-3.93652 214.622) rotate(-40.762)"/>
</clipPath>
</defs>
</svg>
