<svg
              width="197"
              height="73"
              viewBox="0 0 197 73"
              fill="none"
              xmlns="http://www.w3.org/2000/svg"
            >
              <path
                d="M0 8.62744C0 4.20916 3.58172 0.627441 8 0.627441H52.8627L57.4609 5.0493V36.7784V66.3269L52.8627 72.9294H8C3.58172 72.9294 0 69.3477 0 64.9294V8.62744Z"
                fill="#5FFF8B"
                fill-opacity="0.6"
              ></path>
              <path
                d="M197 8.62744C197 4.20916 193.418 0.627441 189 0.627441H62.7344L58.4609 5.0493V36.7784V66.3269L62.7344 72.9294H189C193.418 72.9294 197 69.3477 197 64.9294V8.62744Z"
                fill="#5FFF8B"
                fill-opacity="0.6"
              ></path>
              <rect
                x="8.94141"
                y="12.1285"
                width="179.562"
                height="49"
                rx="6.5"
                fill="#2DA771"
              ></rect>
              <path
                d="M57.95 43.6285V29.509H63.993C65.5295 29.509 66.7562 29.9157 67.673 30.7292C68.5897 31.5297 69.0481 32.666 69.0481 34.138C69.0481 35.0677 68.848 35.8876 68.4477 36.5978C68.0474 37.2951 67.4728 37.8438 66.7239 38.2441C65.975 38.6315 65.0647 38.8252 63.993 38.8252L60.9715 38.8058V43.6285H57.95ZM63.4894 36.4816C63.9284 36.4816 64.3352 36.417 64.7096 36.2879C65.097 36.1459 65.4069 35.9135 65.6393 35.5906C65.8717 35.2678 65.9879 34.8224 65.9879 34.2542C65.9879 33.699 65.8717 33.2664 65.6393 32.9565C65.4069 32.6337 65.097 32.4078 64.7096 32.2786C64.3352 32.1366 63.9284 32.0656 63.4894 32.0656H60.9715V36.4622L63.4894 36.4816ZM70.3227 43.6285V29.509H73.1698V43.6285H70.3227ZM78.7564 43.8029C77.5168 43.8029 76.5161 43.3574 75.7543 42.4664C74.9925 41.5626 74.6116 40.2197 74.6116 38.4378C74.6116 36.643 74.9925 35.3001 75.7543 34.4092C76.5161 33.5053 77.5168 33.0534 78.7564 33.0534C79.557 33.0534 80.2413 33.2342 80.8095 33.5957C81.3905 33.9572 81.8037 34.4415 82.049 35.0483H82.204L82.3202 33.2471H85.0511V43.6285H82.204V41.8079H82.049C81.8037 42.4148 81.3905 42.899 80.8095 43.2605C80.2413 43.6221 79.557 43.8029 78.7564 43.8029ZM79.841 41.498C80.3704 41.498 80.803 41.3753 81.1387 41.13C81.4873 40.8847 81.7456 40.5683 81.9135 40.181C82.0813 39.7936 82.1652 39.3739 82.1652 38.922V37.9342C82.1652 37.4823 82.0813 37.0626 81.9135 36.6753C81.7456 36.2879 81.4873 35.9716 81.1387 35.7262C80.803 35.4809 80.3704 35.3582 79.841 35.3582C79.1438 35.3582 78.5821 35.61 78.156 36.1136C77.7299 36.6043 77.5168 37.379 77.5168 38.4378C77.5168 39.4837 77.7299 40.2584 78.156 40.762C78.5821 41.2527 79.1438 41.498 79.841 41.498ZM86.7907 46.8631V44.5195H87.9915C88.4176 44.5195 88.7533 44.4356 88.9987 44.2677C89.244 44.0998 89.4377 43.8287 89.5797 43.4542L89.8315 42.8151L85.861 33.2471H88.9793L90.8774 38.8058L91.2067 39.9098H91.3035L91.6134 38.8058L93.3953 33.2471H96.4361L92.3881 44.1128C92.0008 45.1974 91.4843 45.9269 90.8387 46.3014C90.1931 46.6758 89.4248 46.8631 88.5338 46.8631H86.7907ZM101.276 43.6285V29.509H104.878L110.824 39.4837H110.96L110.844 34.9709V29.509H113.749V43.6285H110.34L104.394 33.8669H104.258L104.336 37.9536V43.6285H101.276ZM120.697 43.8029C119.651 43.8029 118.735 43.5898 117.947 43.1637C117.172 42.7376 116.565 42.1243 116.126 41.3237C115.7 40.5231 115.487 39.5612 115.487 38.4378C115.487 37.3661 115.694 36.4299 116.107 35.6294C116.52 34.8159 117.114 34.1832 117.889 33.7313C118.664 33.2793 119.6 33.0534 120.697 33.0534C121.73 33.0534 122.634 33.2729 123.409 33.7119C124.197 34.138 124.803 34.7513 125.23 35.5519C125.669 36.3525 125.888 37.3144 125.888 38.4378C125.888 39.5095 125.682 40.4521 125.268 41.2656C124.855 42.0662 124.261 42.6924 123.486 43.1443C122.712 43.5833 121.782 43.8029 120.697 43.8029ZM120.678 41.498C121.375 41.498 121.937 41.2462 122.363 40.7426C122.789 40.2391 123.002 39.4708 123.002 38.4378C123.002 37.4048 122.796 36.6365 122.382 36.133C121.969 35.6294 121.408 35.3776 120.697 35.3776C119.987 35.3776 119.419 35.6294 118.993 36.133C118.567 36.6365 118.354 37.4048 118.354 38.4378C118.354 39.4579 118.567 40.2262 118.993 40.7426C119.419 41.2462 119.981 41.498 120.678 41.498ZM128.462 43.6285L126.021 33.2471H128.946L130.515 40.8008H130.65L132.045 33.2471H135.202L136.616 40.8395H136.693L138.301 33.2471H141.109L138.63 43.6285H134.911L133.555 36.869H133.459L132.161 43.6285H128.462Z"
                fill="#F8E67D"
              ></path>
              <rect
                x="8.94141"
                y="12.1285"
                width="179.562"
                height="49"
                rx="6.5"
                stroke="#00F076"
                stroke-width="3"
                stroke-linecap="round"
              ></rect>
            </svg>