<svg width="117" height="38" viewBox="0 0 117 38" fill="none" xmlns="http://www.w3.org/2000/svg">
<path d="M7.16887 4.64173C7.66481 2.33874 9.70103 0.694336 12.0568 0.694336H107.993C110.525 0.694336 112.657 2.58672 112.958 5.10056L116.841 37.5666H0.0786133L7.16887 4.64173Z" fill="#35CB00"/>
<path d="M36.3539 27.6299V10.1339H43.6259C45.4979 10.1339 46.9939 10.6299 48.1139 11.6219C49.2499 12.5979 49.8179 13.9819 49.8179 15.7739C49.8179 16.9099 49.5699 17.9099 49.0739 18.7739C48.5779 19.6219 47.8659 20.2859 46.9379 20.7659C46.0259 21.2459 44.9219 21.4859 43.6259 21.4859L39.5219 21.4619V27.6299H36.3539ZM43.0979 12.8459H39.5219V18.9659L43.0979 18.9899C44.0899 18.9899 44.9139 18.7499 45.5699 18.2699C46.2419 17.7899 46.5779 16.9979 46.5779 15.8939C46.5779 14.7899 46.2419 14.0059 45.5699 13.5419C44.8979 13.0779 44.0739 12.8459 43.0979 12.8459ZM52.0006 27.6299V10.1339H55.0006V27.6299H52.0006ZM62.579 27.8459C61.043 27.8459 59.803 27.2859 58.859 26.1659C57.915 25.0459 57.443 23.4059 57.443 21.2459C57.443 19.0699 57.915 17.4219 58.859 16.3019C59.803 15.1819 61.043 14.6219 62.579 14.6219C63.619 14.6219 64.507 14.8619 65.243 15.3419C65.979 15.8059 66.499 16.4299 66.803 17.2139H66.971L67.091 14.8619H69.971V27.6299H66.971V25.2539H66.803C66.499 26.0219 65.979 26.6459 65.243 27.1259C64.507 27.6059 63.619 27.8459 62.579 27.8459ZM63.707 25.3979C64.411 25.3979 65.003 25.2299 65.483 24.8939C65.963 24.5579 66.323 24.1259 66.563 23.5979C66.803 23.0699 66.923 22.5019 66.923 21.8939V20.5739C66.923 19.9659 66.803 19.3979 66.563 18.8699C66.323 18.3259 65.963 17.8939 65.483 17.5739C65.003 17.2379 64.411 17.0699 63.707 17.0699C62.747 17.0699 61.971 17.4139 61.379 18.1019C60.787 18.7899 60.491 19.8379 60.491 21.2459C60.491 22.6379 60.787 23.6779 61.379 24.3659C61.971 25.0539 62.747 25.3979 63.707 25.3979ZM72.5881 31.6379V29.1659H74.0041C74.5641 29.1659 74.9961 29.0539 75.3001 28.8299C75.6201 28.6059 75.8681 28.2539 76.0441 27.7739L76.4761 26.6699L71.5321 14.8619H74.8201L77.4361 22.1579L77.9161 23.5979H78.0361L78.4681 22.1579L80.9401 14.8619H84.1321L78.9721 28.4699C78.5241 29.7019 77.9401 30.5339 77.2201 30.9659C76.5001 31.4139 75.6121 31.6379 74.5561 31.6379H72.5881Z" fill="white"/>
</svg>
