<svg width="198" height="73" viewBox="0 0 198 73" fill="none" xmlns="http://www.w3.org/2000/svg">
<path d="M0.5 8.16113C0.5 3.74285 4.08172 0.161133 8.5 0.161133H53.3627L57.9609 4.58299V36.3121V65.8606L53.3627 72.4631H8.5C4.08172 72.4631 0.5 68.8814 0.5 64.4631V8.16113Z" fill="#5FFF8B" fill-opacity="0.73"/>
<path d="M197.5 8.16113C197.5 3.74285 193.918 0.161133 189.5 0.161133H63.2344L58.9609 4.58299V36.3121V65.8606L63.2344 72.4631H189.5C193.918 72.4631 197.5 68.8814 197.5 64.4631V8.16113Z" fill="#5FFF8B" fill-opacity="0.73"/>
<rect x="9.44141" y="11.6621" width="179.562" height="49" rx="6.5" fill="#2DA771"/>
<path d="M62.0526 42.1621L57.0168 28.0425H59.8639L62.9435 37.32L63.7182 39.7411H63.8538L64.5898 37.32L67.7081 28.0425H70.5553L65.5195 42.1621H62.0526ZM71.5432 42.1621V31.8581H73.9643V42.1621H71.5432ZM71.5432 30.4055V28.0425H73.9643V30.4055H71.5432ZM80.6031 42.3364C79.5443 42.3364 78.6404 42.1169 77.8915 41.6779C77.1426 41.2389 76.5616 40.6255 76.1484 39.8379C75.7481 39.0502 75.548 38.127 75.548 37.0682C75.548 35.9707 75.7481 35.0216 76.1484 34.2211C76.5487 33.4076 77.1233 32.7813 77.8722 32.3423C78.6211 31.8904 79.4991 31.6644 80.5063 31.6644C81.6813 31.6644 82.6433 31.9227 83.3922 32.4392C84.1411 32.9557 84.6769 33.6529 84.9997 34.531C85.3355 35.409 85.4452 36.4097 85.329 37.5331H77.9303C77.9303 38.1528 78.04 38.6822 78.2595 39.1213C78.492 39.5603 78.8083 39.896 79.2086 40.1284C79.6089 40.3608 80.0737 40.4771 80.6031 40.4771C81.2229 40.4771 81.7459 40.3415 82.172 40.0703C82.5981 39.7862 82.8692 39.4118 82.9854 38.947H85.2903C85.1999 39.6184 84.9416 40.2124 84.5155 40.7288C84.0894 41.2324 83.5407 41.6262 82.8692 41.9103C82.1978 42.1944 81.4424 42.3364 80.6031 42.3364ZM77.9303 36.216L77.7172 35.9061H83.1985L82.9661 36.216C82.9919 35.5962 82.895 35.0926 82.6755 34.7053C82.4689 34.305 82.172 34.008 81.7846 33.8143C81.4101 33.6206 80.984 33.5238 80.5063 33.5238C79.9898 33.5238 79.5379 33.6335 79.1505 33.8531C78.776 34.0726 78.479 34.3825 78.2595 34.7827C78.0529 35.183 77.9432 35.6608 77.9303 36.216ZM88.107 42.1621L85.5698 31.8581H88.0489L89.8695 39.7411H89.9664L91.6708 31.8581H94.3243L96.0287 39.7604H96.1062L97.9074 31.8581H100.309L97.7525 42.1621H94.5954L92.9298 34.9377H92.8329L91.2253 42.1621H88.107ZM105.504 42.1621V28.0425H112.225C113.18 28.0425 113.968 28.1975 114.588 28.5074C115.22 28.8044 115.698 29.224 116.021 29.7663C116.344 30.3086 116.505 30.9413 116.505 31.6644C116.505 32.1551 116.421 32.6135 116.253 33.0396C116.086 33.4657 115.84 33.8272 115.517 34.1242C115.195 34.4212 114.794 34.6342 114.317 34.7634V34.899C114.885 35.0022 115.356 35.2153 115.73 35.5381C116.105 35.848 116.389 36.2289 116.583 36.6808C116.789 37.1199 116.893 37.6105 116.893 38.1528C116.893 39.018 116.692 39.754 116.292 40.3608C115.905 40.9548 115.343 41.4067 114.607 41.7166C113.871 42.0136 112.98 42.1621 111.934 42.1621H105.504ZM107.983 40.1672H111.663C112.567 40.1672 113.225 39.967 113.639 39.5667C114.065 39.1665 114.278 38.6435 114.278 37.9979C114.278 37.3006 114.058 36.7777 113.619 36.4291C113.193 36.0804 112.599 35.9061 111.837 35.9061H107.983V40.1672ZM107.983 33.9886H111.721C112.225 33.9886 112.638 33.9047 112.961 33.7368C113.284 33.569 113.522 33.343 113.677 33.059C113.845 32.762 113.929 32.4133 113.929 32.0131C113.929 31.3674 113.716 30.8768 113.29 30.5411C112.864 30.1924 112.289 30.0181 111.566 30.0181H107.983V33.9886ZM118.519 42.1621V28.0425H120.94V42.1621H118.519ZM127.637 42.3364C126.862 42.3364 126.165 42.2202 125.545 41.9878C124.926 41.7425 124.383 41.3874 123.918 40.9225C123.467 40.4577 123.118 39.896 122.873 39.2375C122.64 38.579 122.524 37.8365 122.524 37.0101C122.524 35.9513 122.724 35.0216 123.124 34.2211C123.538 33.4205 124.125 32.7942 124.887 32.3423C125.649 31.8904 126.565 31.6644 127.637 31.6644C128.399 31.6644 129.09 31.7871 129.71 32.0324C130.329 32.2778 130.859 32.6328 131.298 33.0977C131.75 33.5625 132.098 34.1242 132.344 34.7827C132.589 35.4284 132.712 36.1708 132.712 37.0101C132.712 38.056 132.505 38.9792 132.092 39.7798C131.692 40.5804 131.111 41.2066 130.349 41.6585C129.6 42.1105 128.696 42.3364 127.637 42.3364ZM127.618 40.3415C128.147 40.3415 128.612 40.2188 129.012 39.9735C129.413 39.7152 129.723 39.3408 129.942 38.8501C130.162 38.3465 130.271 37.7332 130.271 37.0101C130.271 36.4678 130.207 35.99 130.078 35.5768C129.961 35.1507 129.787 34.7957 129.555 34.5116C129.322 34.2275 129.045 34.0145 128.722 33.8724C128.399 33.7304 128.037 33.6594 127.637 33.6594C127.108 33.6594 126.637 33.7885 126.223 34.0467C125.823 34.2921 125.513 34.6665 125.294 35.1701C125.074 35.6608 124.964 36.2741 124.964 37.0101C124.964 37.5524 125.022 38.0366 125.139 38.4627C125.268 38.8759 125.449 39.2246 125.681 39.5086C125.913 39.7798 126.191 39.9864 126.514 40.1284C126.85 40.2705 127.218 40.3415 127.618 40.3415ZM138.668 45.5903C137.803 45.5903 137.054 45.4612 136.421 45.203C135.788 44.9576 135.285 44.6025 134.91 44.1377C134.549 43.6858 134.342 43.1564 134.291 42.5495H136.615C136.666 42.8077 136.783 43.0337 136.963 43.2274C137.157 43.4211 137.402 43.5695 137.699 43.6728C137.996 43.7891 138.339 43.8472 138.726 43.8472C139.307 43.8472 139.785 43.7632 140.159 43.5954C140.547 43.4275 140.831 43.1693 141.011 42.8206C141.205 42.472 141.302 42.0201 141.302 41.4648V39.5667H141.166C140.947 40.1607 140.547 40.6449 139.966 41.0194C139.384 41.3809 138.7 41.5617 137.912 41.5617C137.293 41.5617 136.731 41.4519 136.227 41.2324C135.737 41.0129 135.311 40.6966 134.949 40.2834C134.588 39.8573 134.31 39.3408 134.116 38.7339C133.923 38.1141 133.826 37.4039 133.826 36.6034C133.826 35.5317 133.994 34.6342 134.329 33.9112C134.678 33.1752 135.162 32.6199 135.782 32.2455C136.402 31.8581 137.125 31.6644 137.951 31.6644C138.726 31.6644 139.397 31.8452 139.966 32.2067C140.547 32.5683 140.947 33.0396 141.166 33.6206H141.302L141.379 31.8581H143.723V41.0775C143.723 41.9039 143.6 42.6011 143.355 43.1693C143.123 43.7503 142.78 44.2152 142.328 44.5638C141.877 44.9253 141.341 45.1836 140.721 45.3385C140.114 45.5064 139.43 45.5903 138.668 45.5903ZM138.784 39.683C139.326 39.683 139.778 39.5667 140.14 39.3343C140.514 39.089 140.798 38.7791 140.992 38.4046C141.186 38.0173 141.289 37.6234 141.302 37.2232V35.9836C141.289 35.5704 141.186 35.183 140.992 34.8215C140.798 34.447 140.521 34.1436 140.159 33.9112C139.798 33.6658 139.346 33.5432 138.803 33.5432C138.3 33.5432 137.854 33.6594 137.467 33.8918C137.093 34.1242 136.802 34.4664 136.595 34.9183C136.389 35.3702 136.286 35.9319 136.286 36.6034C136.286 37.2877 136.389 37.8623 136.595 38.3272C136.815 38.7791 137.112 39.1213 137.486 39.3537C137.861 39.5732 138.293 39.683 138.784 39.683Z" fill="#F8E67D"/>
<rect x="9.44141" y="11.6621" width="179.562" height="49" rx="6.5" stroke="#00F076" stroke-width="3" stroke-linecap="round"/>
</svg>
